<?xml version="1.0" encoding="UTF-8" standalone="no"?>
<svg xmlns="http://www.w3.org/2000/svg" version="1.1" width="100" height="100" id="beeminder-logo">
    <g transform="matrix(1.25,0,0,-1.25,-139.99806,274.99987)" id="g14">
        <path
           d="m 176.8813,172.3379 c -2.471,0 -5.02,0.779 -7.18,2.191 l -12.08,8.236 c -0.82,0.559 -1.308,1.486 -1.308,2.478 0,0.992 0.488,1.92 1.308,2.479 l 11.969,8.16 c 2.246,1.473 4.818,2.266 7.291,2.266 6.424,0 10.258,-4.825 10.258,-12.905 0,-8.081 -3.834,-12.905 -10.258,-12.905"
           id="right-wing"
           style="fill:#ffcc2a;fill-opacity:1;fill-rule:nonzero;stroke:none" />
        <path
           d="m 127.541,172.3379 c -6.424,0 -10.26,4.824 -10.26,12.905 0,8.08 3.835,12.905 10.258,12.905 2.47,0 5.021,-0.778 7.182,-2.19 l 12.078,-8.236 c 0.821,-0.559 1.311,-1.487 1.311,-2.479 0,-0.992 -0.49,-1.919 -1.309,-2.478 l -11.968,-8.161 c -2.25,-1.473 -4.822,-2.266 -7.292,-2.266"
           id="left-wing"
           style="fill:#ffcc2a;fill-opacity:1;fill-rule:nonzero;stroke:none" />
        <path
           d="m 152.2095,187.083 c -0.59,0 -1.18,0.174 -1.689,0.521 l -11.369,7.752 c -1.02,0.696 -1.509,1.944 -1.234,3.149 0.379,1.654 1.039,3.246 1.937,4.685 -0.457,0.776 -0.981,1.559 -1.57,2.34 -0.884,1.174 -1.257,2.623 -1.051,4.078 0.206,1.455 0.967,2.743 2.142,3.623 0.958,0.724 2.1,1.106 3.301,1.106 1.723,0 3.365,-0.82 4.398,-2.195 0.598,-0.793 1.156,-1.598 1.67,-2.407 1.127,0.284 2.285,0.424 3.465,0.424 1.375,0 2.748,-0.203 4.07,-0.597 0.543,0.867 1.133,1.722 1.78,2.582 1.033,1.373 2.677,2.193 4.396,2.193 1.201,0 2.342,-0.38 3.303,-1.104 1.178,-0.884 1.937,-2.171 2.142,-3.627 0.205,-1.455 -0.168,-2.902 -1.05,-4.076 -0.743,-0.988 -1.385,-1.972 -1.914,-2.947 0.714,-1.271 1.24,-2.639 1.568,-4.082 0.273,-1.201 -0.217,-2.449 -1.234,-3.145 l -11.37,-7.752 c -0.509,-0.347 -1.101,-0.521 -1.691,-0.521"
           id="head"
           style="fill:#ffcc2a;fill-opacity:1;fill-rule:nonzero;stroke:none" />
        <path
           d="m 152.1997,145.6621 c -0.703,0 -1.404,0.246 -1.971,0.738 l -8.855,7.709 c -4.453,3.59 -7.291,9.225 -7.786,15.475 -0.093,1.158 0.492,2.264 1.502,2.842 0.287,0.164 0.574,0.332 0.855,0.515 l 14.575,9.939 c 0.51,0.348 1.1,0.522 1.692,0.522 0.59,0 1.179,-0.174 1.689,-0.522 l 14.69,-10.013 c 0.213,-0.141 0.48,-0.295 0.746,-0.447 1.004,-0.58 1.584,-1.684 1.49,-2.838 -0.496,-6.242 -3.336,-11.877 -7.791,-15.471 l -8.867,-7.713 c -0.565,-0.49 -1.266,-0.736 -1.969,-0.736"
           id="abdomen"
           style="fill:#ffcc2a;fill-opacity:1;fill-rule:nonzero;stroke:none" />
        <path
           d="m 176.8813,175.3379 c -1.895,0 -3.885,0.619 -5.539,1.701 l -12.029,8.204 11.966,8.16 c 1.717,1.125 3.707,1.745 5.602,1.745 4.682,0 7.258,-3.518 7.258,-9.905 0,-6.385 -2.576,-9.905 -7.258,-9.905 m -15.77,-18.926 -8.253,-7.179 -0.659,-0.571 -0.654,0.571 -8.247,7.177 c -3.865,3.094 -6.292,8.02 -6.721,13.41 0.341,0.196 0.679,0.395 1.009,0.61 l 4.942,3.369 9.681,6.603 9.688,-6.603 5.004,-3.41 c 0.302,-0.201 0.621,-0.385 0.935,-0.569 -0.43,-5.39 -2.863,-10.312 -6.725,-13.408 m -33.573,18.926 c -4.678,0 -7.258,3.52 -7.258,9.905 0,6.387 2.58,9.905 7.258,9.905 1.895,0 3.885,-0.62 5.541,-1.702 l 12.032,-8.203 -11.969,-8.161 c -1.719,-1.125 -3.707,-1.744 -5.601,-1.744 l -0.003,0 z m 13.638,35.497 c 0.452,0.338 0.979,0.502 1.5,0.502 0.76,0 1.51,-0.344 2,-0.998 1.139,-1.51 2.025,-2.932 2.726,-4.252 1.467,0.689 3.094,1.072 4.807,1.072 1.942,0 3.764,-0.498 5.371,-1.365 0.725,1.402 1.655,2.92 2.875,4.545 0.492,0.654 1.242,0.998 2,0.998 0.524,0 1.051,-0.164 1.502,-0.502 1.106,-0.83 1.324,-2.396 0.494,-3.502 -1.392,-1.851 -2.326,-3.516 -2.957,-4.941 0.979,-1.328 1.701,-2.875 2.084,-4.557 l -11.369,-7.752 -11.369,7.752 c 0.442,1.926 1.329,3.672 2.536,5.121 -0.62,1.295 -1.479,2.764 -2.696,4.377 -0.829,1.106 -0.607,2.672 0.496,3.502 m 35.705,-9.687 c -2.529,0 -5.129,-0.676 -7.473,-1.905 -0.256,1.11 -0.609,2.18 -1.058,3.207 0.275,0.422 0.576,0.85 0.898,1.28 2.817,3.742 2.061,9.084 -1.683,11.9 -1.489,1.118 -3.254,1.708 -5.11,1.708 -2.656,0 -5.197,-1.268 -6.795,-3.391 -0.25,-0.333 -0.494,-0.669 -0.732,-1.005 -0.899,0.145 -1.809,0.217 -2.719,0.217 -0.697,0 -1.389,-0.041 -2.072,-0.123 -0.217,0.305 -0.44,0.61 -0.666,0.911 -1.594,2.122 -4.135,3.391 -6.793,3.391 -1.859,0 -3.627,-0.592 -5.111,-1.711 -3.743,-2.815 -4.498,-8.155 -1.681,-11.899 0.165,-0.221 0.326,-0.44 0.478,-0.659 -0.588,-1.216 -1.044,-2.502 -1.352,-3.818 -2.329,1.225 -4.929,1.897 -7.474,1.897 -6.115,0 -13.258,-4.164 -13.258,-15.905 0,-11.739 7.143,-15.905 13.258,-15.905 1.014,0 2.039,0.117 3.055,0.324 0.003,-0.105 -0.004,-0.209 0.003,-0.316 0.559,-7.045 3.783,-13.43 8.85,-17.535 l 8.162,-7.104 0.65,-0.568 c 1.129,-0.985 2.535,-1.477 3.941,-1.477 1.405,0 2.807,0.49 3.936,1.471 l 0.656,0.57 8.172,7.11 c 5.068,4.109 8.293,10.492 8.855,17.531 0.008,0.107 0,0.211 0.002,0.316 1.016,-0.207 2.043,-0.322 3.061,-0.322 6.117,0 13.258,4.166 13.258,15.905 0,11.741 -7.141,15.905 -13.258,15.905"
           id="contour"
           style="fill:#4d4c4e;fill-opacity:1;fill-rule:nonzero;stroke:none" />
        <path
           d="m 142.7939,173.7988 c -0.117,-0.742 -0.203,-1.5 -0.203,-2.285 0,-0.319 0.029,-0.631 0.051,-0.947 l 19.128,0 c 0.018,0.316 0.045,0.628 0.045,0.947 0,0.783 -0.064,1.545 -0.174,2.285 l -18.847,0 z"
           id="top-stripe"
           style="fill:#4d4c4e;fill-opacity:1;fill-rule:nonzero;stroke:none" />
        <path
           d="m 147.147,161.1504 0.107,-0.09 0.465,-0.404 8.971,0 0.568,0.494 c 0.846,0.672 1.578,1.496 2.205,2.416 l -14.519,0 c 0.629,-0.92 1.357,-1.746 2.203,-2.416"
           id="bottom-stripe"
           style="fill:#4d4c4e;fill-opacity:1;fill-rule:nonzero;stroke:none" />
    </g>
</svg>
