<?xml version="1.0" encoding="UTF-8" standalone="no"?>
<svg xmlns="http://www.w3.org/2000/svg" version="1.1" width="100" height="100" id="beeminder-logo">
	<path id="right-wing" fill="#ffcc2a"
	      d="m 81.103,59.577 c -3.088,0 -6.275,-0.973 -8.975,-2.738 l -15.1,-10.295 c -1.025,-0.698 -1.635,-1.857 -1.635,-3.097 0,-1.24 0.61,-2.4 1.635,-3.098 l 14.961,-10.2 c 2.807,-1.841 6.022,-2.832 9.113,-2.832 8.03,0 12.822,6.031 12.822,16.131 0,10.101 -4.792,16.131 -12.822,16.131" />
	<path id="left-wing" fill="#ffcc2a"
	      d="m 19.428,59.577 c -8.03,0 -12.825,-6.03 -12.825,-16.131 0,-10.1 4.793,-16.131 12.822,-16.131 3.087,0 6.276,0.972 8.977,2.737 l 15.097,10.295 c 1.026,0.698 1.638,1.858 1.638,3.098 0,1.24 -0.612,2.398 -1.636,3.097 l -14.96,10.201 c -2.812,1.841 -6.027,2.832 -9.115,2.832" />
	<path id="head" fill="#ffcc2a"
	      d="m 50.263,41.146 c -0.737,0 -1.475,-0.217 -2.111,-0.651 l -14.211,-9.69 c -1.275,-0.87 -1.886,-2.43 -1.542,-3.936 0.473,-2.067 1.298,-4.057 2.421,-5.856 -0.571,-0.97 -1.226,-1.948 -1.962,-2.925 -1.105,-1.467 -1.571,-3.278 -1.313,-5.097 0.257,-1.818 1.208,-3.428 2.677,-4.528 1.197,-0.905 2.625,-1.382 4.126,-1.382 2.153,0 4.206,1.025 5.497,2.743 0.747,0.991 1.445,1.997 2.087,3.008 1.408,-0.355 2.856,-0.53 4.331,-0.53 1.718,0 3.435,0.253 5.087,0.746 0.678,-1.083 1.416,-2.152 2.225,-3.227 1.291,-1.716 3.346,-2.741 5.495,-2.741 1.501,0 2.927,0.475 4.128,1.38 1.472,1.105 2.421,2.713 2.677,4.533 0.256,1.818 -0.21,3.627 -1.312,5.095 -0.928,1.235 -1.731,2.465 -2.392,3.683 0.892,1.588 1.55,3.298 1.96,5.102 0.341,1.501 -0.271,3.061 -1.542,3.931 l -14.212,9.69 c -0.636,0.433 -1.376,0.651 -2.113,0.651" />
	<path id="abdomen" fill="#ffcc2a"
	      d="m 50.251,92.922 c -0.878,0 -1.755,-0.307 -2.463,-0.922 l -11.068,-9.636 c -5.566,-4.487 -9.113,-11.531 -9.732,-19.343 -0.116,-1.447 0.615,-2.83 1.877,-3.552 0.358,-0.205 0.717,-0.415 1.068,-0.643 l 18.218,-12.423 c 0.637,-0.435 1.375,-0.652 2.115,-0.652 0.737,0 1.473,0.217 2.111,0.652 l 18.362,12.516 c 0.266,0.176 0.6,0.368 0.932,0.558 1.255,0.725 1.98,2.105 1.862,3.547 -0.62,7.802 -4.17,14.846 -9.738,19.338 l -11.083,9.641 c -0.706,0.612 -1.582,0.92 -2.461,0.92" />
	<path id="contour" fill="#4d4c4e"
	      d="m 81.103,55.827 c -2.368,0 -4.856,-0.773 -6.923,-2.126 l -15.036,-10.255 14.957,-10.2 c 2.146,-1.406 4.633,-2.181 7.002,-2.181 5.852,0 9.072,4.397 9.072,12.381 0,7.981 -3.22,12.381 -9.072,12.381 m -19.712,23.657 -10.316,8.973 -0.823,0.713 -0.817,-0.713 -10.308,-8.971 c -4.831,-3.867 -7.865,-10.025 -8.401,-16.762 0.426,-0.245 0.848,-0.493 1.261,-0.762 l 6.177,-4.211 12.101,-8.253 12.11,8.253 6.255,4.262 c 0.377,0.251 0.776,0.481 1.168,0.711 -0.537,6.737 -3.578,12.89 -8.406,16.76 m -41.966,-23.657 c -5.847,0 -9.072,-4.4 -9.072,-12.381 0,-7.983 3.225,-12.381 9.072,-12.381 2.368,0 4.856,0.775 6.926,2.127 l 15.04,10.253 -14.961,10.201 c -2.148,1.406 -4.633,2.18 -7.001,2.18 l -0.003,0 z m 17.047,-44.371 c 0.565,-0.422 1.223,-0.627 1.875,-0.627 0.95,0 1.887,0.43 2.5,1.247 1.423,1.887 2.531,3.665 3.407,5.315 1.833,-0.861 3.867,-1.34 6.008,-1.34 2.427,0 4.705,0.622 6.713,1.706 0.906,-1.752 2.068,-3.65 3.593,-5.681 0.615,-0.817 1.552,-1.247 2.5,-1.247 0.655,0 1.313,0.205 1.877,0.627 1.382,1.037 1.655,2.995 0.617,4.377 -1.74,2.313 -2.907,4.395 -3.696,6.176 1.223,1.66 2.126,3.593 2.605,5.696 l -14.211,9.69 -14.211,-9.69 c 0.552,-2.407 1.661,-4.59 3.17,-6.401 -0.775,-1.618 -1.848,-3.455 -3.37,-5.471 -1.036,-1.382 -0.758,-3.34 0.62,-4.377 m 44.631,12.108 c -3.161,0 -6.411,0.845 -9.341,2.381 -0.32,-1.387 -0.761,-2.725 -1.322,-4.008 0.343,-0.527 0.72,-1.062 1.122,-1.6 3.521,-4.677 2.576,-11.355 -2.103,-14.875 -1.861,-1.397 -4.067,-2.135 -6.387,-2.135 -3.32,0 -6.496,1.585 -8.493,4.238 -0.312,0.416 -0.617,0.836 -0.915,1.256 -1.123,-0.181 -2.261,-0.271 -3.398,-0.271 -0.871,0 -1.736,0.051 -2.59,0.153 -0.271,-0.381 -0.55,-0.762 -0.832,-1.138 -1.992,-2.652 -5.168,-4.238 -8.491,-4.238 -2.323,0 -4.533,0.74 -6.388,2.138 -4.678,3.518 -5.622,10.193 -2.101,14.873 0.206,0.276 0.407,0.55 0.597,0.823 -0.735,1.52 -1.305,3.127 -1.69,4.772 -2.911,-1.531 -6.161,-2.371 -9.342,-2.371 -7.643,0 -16.572,5.205 -16.572,19.881 0,14.673 8.928,19.881 16.572,19.881 1.267,0 2.548,-0.146 3.818,-0.405 0.003,0.131 -0.005,0.261 0.003,0.395 0.698,8.806 4.728,16.787 11.062,21.918 l 10.202,8.88 0.812,0.71 c 1.411,1.231 3.168,1.846 4.926,1.846 1.756,0 3.508,-0.612 4.92,-1.838 l 0.82,-0.712 10.215,-8.887 c 6.335,-5.136 10.366,-13.115 11.068,-21.913 0.01,-0.133 0,-0.263 0.002,-0.395 1.27,0.258 2.553,0.402 3.826,0.402 7.646,0 16.572,-5.207 16.572,-19.881 0,-14.676 -8.926,-19.881 -16.572,-19.881" />
	<path id="top-stripe" fill="#4d4c4e"
	      d="m 38.494,57.751 c -0.146,0.927 -0.253,1.875 -0.253,2.856 0,0.398 0.036,0.788 0.063,1.183 l 23.91,0 c 0.022,-0.395 0.056,-0.785 0.056,-1.183 0,-0.978 -0.08,-1.931 -0.217,-2.856 l -23.558,0 z" />
	<path id="bottom-stripe" fill="#4d4c4e"
	      d="m 43.935,73.561 0.133,0.112 0.581,0.505 11.213,0 0.71,-0.617 c 1.057,-0.84 1.972,-1.87 2.756,-3.02 l -18.148,0 c 0.786,1.15 1.696,2.182 2.753,3.02" />
</svg>
