<?xml version="1.0" encoding="UTF-8" standalone="no"?>
<!-- Created with Inkscape (http://www.inkscape.org/) -->

<svg
   xmlns:dc="http://purl.org/dc/elements/1.1/"
   xmlns:cc="http://creativecommons.org/ns#"
   xmlns:rdf="http://www.w3.org/1999/02/22-rdf-syntax-ns#"
   xmlns:svg="http://www.w3.org/2000/svg"
   xmlns="http://www.w3.org/2000/svg"
   xmlns:sodipodi="http://sodipodi.sourceforge.net/DTD/sodipodi-0.dtd"
   xmlns:inkscape="http://www.inkscape.org/namespaces/inkscape"
   id="svg2"
   version="1.1"
   inkscape:version="0.48.4 r9939"
   width="630"
   height="450"
   xml:space="preserve"
   sodipodi:docname="beeminder.ai"><metadata
     id="metadata8"><rdf:RDF><cc:Work
         rdf:about=""><dc:format>image/svg+xml</dc:format><dc:type
           rdf:resource="http://purl.org/dc/dcmitype/StillImage" /><dc:title></dc:title></cc:Work></rdf:RDF></metadata><defs
     id="defs6"><clipPath
       clipPathUnits="userSpaceOnUse"
       id="clipPath16"><path
         d="m 0,0 503.998,0 0,360 L 0,360 0,0 z"
         id="path18" /></clipPath></defs><sodipodi:namedview
     pagecolor="#ffffff"
     bordercolor="#666666"
     borderopacity="1"
     objecttolerance="10"
     gridtolerance="10"
     guidetolerance="10"
     inkscape:pageopacity="0"
     inkscape:pageshadow="2"
     inkscape:window-width="640"
     inkscape:window-height="480"
     id="namedview4"
     showgrid="false"
     inkscape:zoom="0.48253968"
     inkscape:cx="315"
     inkscape:cy="225"
     inkscape:window-x="607"
     inkscape:window-y="319"
     inkscape:window-maximized="0"
     inkscape:current-layer="g10" /><g
     id="g10"
     inkscape:groupmode="layer"
     inkscape:label="beeminder"
     transform="matrix(1.25,0,0,-1.25,0,450)"><g
       id="g12"><g
         id="g14"
         clip-path="url(#clipPath16)"><g
           id="g20"
           transform="translate(380.0566,186.2959)"><path
             d="M 0,0 C 1,0 1.77,0.227 2.311,0.676 2.85,1.125 3.119,1.73 3.119,2.49 l 0,0.061 c 0,0.842 -0.279,1.465 -0.84,1.875 -0.558,0.41 -1.33,0.615 -2.308,0.615 l -3.811,0 L -3.84,0 0,0 z m -9.66,10.08 9.93,0 c 1.621,0 2.99,-0.199 4.111,-0.6 C 5.5,9.08 6.41,8.521 7.109,7.801 8.35,6.602 8.971,4.971 8.971,2.91 l 0,-0.058 C 8.971,1.23 8.58,-0.109 7.801,-1.17 7.02,-2.229 5.971,-3.039 4.65,-3.599 l 5.01,-7.32 -6.721,0 -4.228,6.361 -0.061,0 -2.49,0 0,-6.361 -5.82,0 0,20.999 z m -20.639,0 16.86,0 0,-4.949 -11.131,0 0,-3.18 10.08,0 0,-4.589 -10.08,0 0,-3.33 11.281,0 0,-4.951 -17.01,0 0,20.999 z M -45.236,-5.759 c 1.746,0 3.15,0.461 4.215,1.381 1.064,0.92 1.595,2.23 1.595,3.929 l 0,0.06 c 0,1.68 -0.531,2.985 -1.595,3.914 -1.065,0.93 -2.469,1.395 -4.215,1.395 l -2.379,0 0,-10.679 2.379,0 z m -8.2,15.839 8.1,0 c 1.881,0 3.555,-0.254 5.025,-0.766 1.471,-0.507 2.711,-1.224 3.721,-2.144 1.01,-0.92 1.779,-2.016 2.309,-3.283 0.531,-1.272 0.795,-2.666 0.795,-4.186 l 0,-0.06 c 0,-1.52 -0.27,-2.926 -0.809,-4.215 -0.541,-1.288 -1.32,-2.405 -2.34,-3.345 -1.021,-0.939 -2.275,-1.676 -3.765,-2.205 -1.491,-0.529 -3.176,-0.795 -5.055,-0.795 l -7.981,0 0,20.999 z m -24.044,0 5.441,0 8.658,-11.1 0,11.1 5.731,0 0,-20.999 -5.112,0 -8.988,11.521 0,-11.521 -5.73,0 0,20.999 z m -10.1,0 5.85,0 0,-20.999 -5.85,0 0,20.999 z m -26.586,0 6.148,0 5.01,-8.129 5.012,8.129 6.148,0 0,-20.999 -5.789,0 0,12.06 -5.355,-8.22 -0.119,0 -5.328,8.159 0,-11.999 -5.727,0 0,20.999 z m -20.64,0 16.859,0 0,-4.949 -11.129,0 0,-3.18 10.08,0 0,-4.589 -10.08,0 0,-3.33 11.279,0 0,-4.951 -17.009,0 0,20.999 z m -20.639,0 16.86,0 0,-4.949 -11.131,0 0,-3.18 10.08,0 0,-4.589 -10.08,0 0,-3.33 11.281,0 0,-4.951 -17.01,0 0,20.999 z m -11.744,-16.317 c 0.898,0 1.588,0.164 2.068,0.494 0.481,0.33 0.723,0.804 0.723,1.425 l 0,0.058 c 0,0.58 -0.232,1.04 -0.693,1.382 -0.459,0.339 -1.178,0.509 -2.16,0.509 l -4.438,0 0,-3.868 4.5,0 z m -0.842,7.948 c 0.901,0 1.586,0.15 2.055,0.449 0.471,0.301 0.707,0.76 0.707,1.381 l 0,0.061 c 0,0.58 -0.223,1.023 -0.662,1.334 -0.44,0.31 -1.1,0.464 -1.981,0.464 l -3.777,0 0,-3.689 3.658,0 z m -9.328,8.369 10.752,0 c 1.316,0 2.443,-0.16 3.383,-0.478 0.937,-0.323 1.717,-0.791 2.336,-1.413 0.418,-0.418 0.748,-0.91 0.99,-1.468 0.236,-0.561 0.357,-1.2 0.357,-1.92 l 0,-0.061 c 0,-1.219 -0.304,-2.205 -0.91,-2.955 -0.607,-0.75 -1.379,-1.324 -2.312,-1.722 1.285,-0.422 2.301,-1.028 3.055,-1.817 0.751,-0.791 1.126,-1.894 1.126,-3.313 l 0,-0.061 c 0,-1.82 -0.691,-3.24 -2.084,-4.26 -1.39,-1.021 -3.345,-1.531 -5.865,-1.531 l -10.828,0 0,20.999 z"
             style="fill:#4d4c4e;fill-opacity:1;fill-rule:nonzero;stroke:none"
             id="path22" /></g><g
           id="g24"
           transform="translate(176.8813,172.3379)"><path
             d="m 0,0 c -2.471,0 -5.02,0.779 -7.18,2.191 l -12.08,8.236 c -0.82,0.559 -1.308,1.486 -1.308,2.478 0,0.992 0.488,1.92 1.308,2.479 l 11.969,8.16 C -5.045,25.017 -2.473,25.81 0,25.81 6.424,25.81 10.258,20.985 10.258,12.905 10.258,4.824 6.424,0 0,0"
             style="fill:#ffcc2a;fill-opacity:1;fill-rule:nonzero;stroke:none"
             id="path26" /></g><g
           id="g28"
           transform="translate(127.541,172.3379)"><path
             d="m 0,0 c -6.424,0 -10.26,4.824 -10.26,12.905 0,8.08 3.835,12.905 10.258,12.905 2.47,0 5.021,-0.778 7.182,-2.19 l 12.078,-8.236 c 0.821,-0.559 1.311,-1.487 1.311,-2.479 0,-0.992 -0.49,-1.919 -1.309,-2.478 L 7.292,2.266 C 5.042,0.793 2.47,0 0,0"
             style="fill:#ffcc2a;fill-opacity:1;fill-rule:nonzero;stroke:none"
             id="path30" /></g><g
           id="g32"
           transform="translate(127.5391,201.1475)"><path
             d="m 0,0 c -6.116,0 -13.258,-4.166 -13.258,-15.904 0,-11.74 7.142,-15.906 13.258,-15.906 3.048,0 6.204,0.967 8.888,2.723 0.032,0.022 0.064,0.043 0.096,0.065 l 11.968,8.162 c 1.638,1.116 2.619,2.972 2.619,4.956 0,1.984 -0.981,3.84 -2.619,4.957 L 8.921,-2.744 C 8.889,-2.723 8.855,-2.701 8.823,-2.678 6.179,-0.951 3.046,0 0,0 m 0,-6 c 1.895,0 3.885,-0.619 5.541,-1.701 l 12.03,-8.203 -11.967,-8.161 C 3.885,-25.19 1.896,-25.81 0.002,-25.81 l -0.002,0 c -4.68,0 -7.258,3.52 -7.258,9.906 C -7.258,-9.518 -4.68,-6 0,-6"
             style="fill:#4d4c4e;fill-opacity:1;fill-rule:nonzero;stroke:none"
             id="path34" /></g><g
           id="g36"
           transform="translate(127.541,172.3379)"><path
             d="m 0,0 c -6.424,0 -10.26,4.824 -10.26,12.905 0,8.08 3.835,12.905 10.258,12.905 2.47,0 5.021,-0.778 7.182,-2.19 l 12.078,-8.236 c 0.821,-0.559 1.311,-1.487 1.311,-2.479 0,-0.992 -0.49,-1.919 -1.309,-2.478 L 7.292,2.266 C 5.042,0.793 2.47,0 0,0"
             style="fill:#ffcc2a;fill-opacity:1;fill-rule:nonzero;stroke:none"
             id="path38" /></g><g
           id="g40"
           transform="translate(152.2095,187.083)"><path
             d="m 0,0 c -0.59,0 -1.18,0.174 -1.689,0.521 l -11.369,7.752 c -1.02,0.696 -1.509,1.944 -1.234,3.149 0.379,1.654 1.039,3.246 1.937,4.685 -0.457,0.776 -0.981,1.559 -1.57,2.34 -0.884,1.174 -1.257,2.623 -1.051,4.078 0.206,1.455 0.967,2.743 2.142,3.623 0.958,0.724 2.1,1.106 3.301,1.106 1.723,0 3.365,-0.82 4.398,-2.195 0.598,-0.793 1.156,-1.598 1.67,-2.407 1.127,0.284 2.285,0.424 3.465,0.424 1.375,0 2.748,-0.203 4.07,-0.597 0.543,0.867 1.133,1.722 1.78,2.582 1.033,1.373 2.677,2.193 4.396,2.193 1.201,0 2.342,-0.38 3.303,-1.104 1.178,-0.884 1.937,-2.171 2.142,-3.627 0.205,-1.455 -0.168,-2.902 -1.05,-4.076 -0.743,-0.988 -1.385,-1.972 -1.914,-2.947 0.714,-1.271 1.24,-2.639 1.568,-4.082 0.273,-1.201 -0.217,-2.449 -1.234,-3.145 L 1.691,0.521 C 1.182,0.174 0.59,0 0,0"
             style="fill:#ffcc2a;fill-opacity:1;fill-rule:nonzero;stroke:none"
             id="path42" /></g><g
           id="g44"
           transform="translate(152.1997,145.6621)"><path
             d="m 0,0 c -0.703,0 -1.404,0.246 -1.971,0.738 l -8.855,7.709 c -4.453,3.59 -7.291,9.225 -7.786,15.475 -0.093,1.158 0.492,2.264 1.502,2.842 0.287,0.164 0.574,0.332 0.855,0.515 l 14.575,9.939 c 0.51,0.348 1.1,0.522 1.692,0.522 0.59,0 1.179,-0.174 1.689,-0.522 l 14.69,-10.013 c 0.213,-0.141 0.48,-0.295 0.746,-0.447 1.004,-0.58 1.584,-1.684 1.49,-2.838 C 18.131,17.678 15.291,12.043 10.836,8.449 L 1.969,0.736 C 1.404,0.246 0.703,0 0,0"
             style="fill:#ffcc2a;fill-opacity:1;fill-rule:nonzero;stroke:none"
             id="path46" /></g><g
           id="g48"
           transform="translate(176.8813,175.3379)"><path
             d="m 0,0 c -1.895,0 -3.885,0.619 -5.539,1.701 l -12.029,8.204 11.966,8.16 C -3.885,19.19 -1.895,19.81 0,19.81 4.682,19.81 7.258,16.292 7.258,9.905 7.258,3.52 4.682,0 0,0 m -15.77,-18.926 -8.253,-7.179 -0.659,-0.571 -0.654,0.571 -8.247,7.177 c -3.865,3.094 -6.292,8.02 -6.721,13.41 0.341,0.196 0.679,0.395 1.009,0.61 l 4.942,3.369 9.681,6.603 9.688,-6.603 5.004,-3.41 c 0.302,-0.201 0.621,-0.385 0.935,-0.569 -0.43,-5.39 -2.863,-10.312 -6.725,-13.408 M -49.343,0 c -4.678,0 -7.258,3.52 -7.258,9.905 0,6.387 2.58,9.905 7.258,9.905 1.895,0 3.885,-0.62 5.541,-1.702 L -31.77,9.905 -43.739,1.744 C -45.458,0.619 -47.446,0 -49.34,0 l -0.003,0 z m 13.638,35.497 c 0.452,0.338 0.979,0.502 1.5,0.502 0.76,0 1.51,-0.344 2,-0.998 1.139,-1.51 2.025,-2.932 2.726,-4.252 1.467,0.689 3.094,1.072 4.807,1.072 1.942,0 3.764,-0.498 5.371,-1.365 0.725,1.402 1.655,2.92 2.875,4.545 0.492,0.654 1.242,0.998 2,0.998 0.524,0 1.051,-0.164 1.502,-0.502 1.106,-0.83 1.324,-2.396 0.494,-3.502 -1.392,-1.851 -2.326,-3.516 -2.957,-4.941 0.979,-1.328 1.701,-2.875 2.084,-4.557 l -11.369,-7.752 -11.369,7.752 c 0.442,1.926 1.329,3.672 2.536,5.121 -0.62,1.295 -1.479,2.764 -2.696,4.377 -0.829,1.106 -0.607,2.672 0.496,3.502 M 0,25.81 c -2.529,0 -5.129,-0.676 -7.473,-1.905 -0.256,1.11 -0.609,2.18 -1.058,3.207 0.275,0.422 0.576,0.85 0.898,1.28 2.817,3.742 2.061,9.084 -1.683,11.9 -1.489,1.118 -3.254,1.708 -5.11,1.708 -2.656,0 -5.197,-1.268 -6.795,-3.391 -0.25,-0.333 -0.494,-0.669 -0.732,-1.005 -0.899,0.145 -1.809,0.217 -2.719,0.217 -0.697,0 -1.389,-0.041 -2.072,-0.123 -0.217,0.305 -0.44,0.61 -0.666,0.911 -1.594,2.122 -4.135,3.391 -6.793,3.391 -1.859,0 -3.627,-0.592 -5.111,-1.711 -3.743,-2.815 -4.498,-8.155 -1.681,-11.899 0.165,-0.221 0.326,-0.44 0.478,-0.659 -0.588,-1.216 -1.044,-2.502 -1.352,-3.818 -2.329,1.225 -4.929,1.897 -7.474,1.897 -6.115,0 -13.258,-4.164 -13.258,-15.905 0,-11.739 7.143,-15.905 13.258,-15.905 1.014,0 2.039,0.117 3.055,0.324 0.003,-0.105 -0.004,-0.209 0.003,-0.316 0.559,-7.045 3.783,-13.43 8.85,-17.535 l 8.162,-7.104 0.65,-0.568 c 1.129,-0.985 2.535,-1.477 3.941,-1.477 1.405,0 2.807,0.49 3.936,1.471 l 0.656,0.57 8.172,7.11 c 5.068,4.109 8.293,10.492 8.855,17.531 0.008,0.107 0,0.211 0.002,0.316 C -2.045,-5.885 -1.018,-6 0,-6 6.117,-6 13.258,-1.834 13.258,9.905 13.258,21.646 6.117,25.81 0,25.81"
             style="fill:#4d4c4e;fill-opacity:1;fill-rule:nonzero;stroke:none"
             id="path50" /></g><g
           id="g52"
           transform="translate(142.7939,173.7988)"><path
             d="m 0,0 c -0.117,-0.742 -0.203,-1.5 -0.203,-2.285 0,-0.319 0.029,-0.631 0.051,-0.947 l 19.128,0 c 0.018,0.316 0.045,0.628 0.045,0.947 0,0.783 -0.064,1.545 -0.174,2.285 L 0,0 z"
             style="fill:#4d4c4e;fill-opacity:1;fill-rule:nonzero;stroke:none"
             id="path54" /></g><g
           id="g56"
           transform="translate(147.147,161.1504)"><path
             d="m 0,0 0.107,-0.09 0.465,-0.404 8.971,0 L 10.111,0 c 0.846,0.672 1.578,1.496 2.205,2.416 l -14.519,0 C -1.574,1.496 -0.846,0.67 0,0"
             style="fill:#4d4c4e;fill-opacity:1;fill-rule:nonzero;stroke:none"
             id="path58" /></g></g></g></g></svg>