<?xml version="1.0" encoding="UTF-8" standalone="no"?>
<!-- Created with Inkscape (http://www.inkscape.org/) -->

<svg
   xmlns:dc="http://purl.org/dc/elements/1.1/"
   xmlns:cc="http://creativecommons.org/ns#"
   xmlns:rdf="http://www.w3.org/1999/02/22-rdf-syntax-ns#"
   xmlns:svg="http://www.w3.org/2000/svg"
   xmlns="http://www.w3.org/2000/svg"
   version="1.1"
   width="358.17398"
   height="313.82043"
   id="svg3807">
  <defs
     id="defs3809" />
  <metadata
     id="metadata3812">
    <rdf:RDF>
      <cc:Work
         rdf:about="">
        <dc:format>image/svg+xml</dc:format>
        <dc:type
           rdf:resource="http://purl.org/dc/dcmitype/StillImage" />
        <dc:title></dc:title>
      </cc:Work>
    </rdf:RDF>
  </metadata>
  <g
     transform="translate(-132.8445,-415.09485)"
     id="layer1">
    <rect
       width="358.17398"
       height="313.82043"
       x="132.8445"
       y="415.09485"
       id="rect6437"
       style="fill:#1f8dd1" />
    <g
       transform="matrix(1.8433027,0,0,1.8433027,-524.02565,-490.11981)"
       id="Layer_3">
      <g
         id="g6449">
        <path
           d="m 483.413,596.568 c -0.317,-8.131 -3.407,-15.129 -9.267,-20.998 -0.737,-0.729 -1.486,-1.415 -2.243,-2.045 4.275,-4.787 6.415,-10.453 6.415,-17.001 0,-7.108 -2.518,-13.179 -7.552,-18.215 -5.032,-5.031 -11.102,-7.546 -18.214,-7.546 -7.107,0 -13.18,2.515 -18.213,7.546 -5.032,5.036 -7.548,11.106 -7.548,18.215 0,6.207 1.929,11.624 5.793,16.264 -1.099,0.86 -2.15,1.79 -3.154,2.782 v 0.042 c -5.57,5.595 -8.625,12.227 -9.161,19.901 -0.19,-0.193 -0.385,-0.392 -0.58,-0.595 -9.062,-9.063 -13.594,-19.971 -13.594,-32.717 0,-12.777 4.531,-23.683 13.594,-32.718 9.038,-9.052 19.93,-13.565 32.679,-13.565 12.785,0 23.697,4.514 32.735,13.565 9.035,9.035 13.552,19.94 13.552,32.718 0,12.778 -4.517,23.693 -13.552,32.754 v -0.037 c -0.565,0.565 -1.127,1.117 -1.69,1.65 z"
           id="path6451"
           style="fill:#89b32f;fill-rule:evenodd" />
        <path
           d="m 483.413,596.568 c 0.562,-0.533 1.125,-1.085 1.69,-1.649 v 0.037 c 9.035,-9.061 13.552,-19.977 13.552,-32.754 0,-12.777 -4.517,-23.683 -13.552,-32.718 -9.038,-9.052 -19.95,-13.565 -32.735,-13.565 -12.749,0 -23.641,4.514 -32.679,13.565 -9.062,9.035 -13.594,19.94 -13.594,32.718 0,12.746 4.531,23.653 13.594,32.717 0.195,0.203 0.39,0.401 0.58,0.595 0.536,-7.675 3.591,-14.307 9.161,-19.901 v -0.042 c 1.004,-0.992 2.056,-1.922 3.154,-2.782 -3.864,-4.64 -5.793,-10.057 -5.793,-16.264 0,-7.108 2.516,-13.179 7.548,-18.215 5.033,-5.031 11.105,-7.546 18.213,-7.546 7.112,0 13.182,2.515 18.214,7.546 5.034,5.036 7.552,11.106 7.552,18.215 0,6.548 -2.14,12.214 -6.415,17.001 0.757,0.63 1.506,1.315 2.243,2.045 5.86,5.868 8.95,12.867 9.267,20.997 z m 7.918,-73.316 c 10.743,10.745 16.116,23.727 16.116,38.95 0,15.193 -5.373,28.176 -16.116,38.946 -3.353,3.329 -6.906,6.152 -10.663,8.47 -0.976,0.581 -2.017,0.768 -3.115,0.546 -1.102,-0.22 -1.992,-0.771 -2.681,-1.652 -0.685,-0.898 -0.976,-1.908 -0.872,-3.035 l 0.621,-7.694 c -0.025,-6.23 -2.261,-11.556 -6.704,-15.982 -1.619,-1.61 -3.344,-2.923 -5.173,-3.945 -0.907,-0.494 -1.542,-1.215 -1.897,-2.162 -0.417,-0.961 -0.479,-1.918 -0.19,-2.87 0.265,-0.97 0.814,-1.767 1.651,-2.376 0.785,-0.586 1.525,-1.235 2.232,-1.939 3.325,-3.324 4.987,-7.315 4.987,-11.982 0,-4.671 -1.662,-8.666 -4.987,-11.981 -3.319,-3.327 -7.314,-4.989 -11.987,-4.989 -4.661,0 -8.658,1.662 -11.982,4.989 -3.317,3.315 -4.977,7.311 -4.977,11.981 0,4.667 1.659,8.658 4.977,11.982 0.563,0.558 1.152,1.068 1.77,1.533 0.801,0.633 1.321,1.451 1.57,2.457 0.244,0.976 0.148,1.938 -0.292,2.888 -0.438,0.933 -1.113,1.634 -2.019,2.099 -2.121,1.051 -4.1,2.485 -5.939,4.316 -4.442,4.451 -6.664,9.828 -6.664,16.129 l 0.514,6.786 c 0.07,1.116 -0.245,2.115 -0.95,2.992 -0.714,0.91 -1.617,1.458 -2.72,1.65 -1.116,0.181 -2.153,-0.044 -3.114,-0.656 -3.272,-2.12 -6.362,-4.64 -9.268,-7.553 -10.774,-10.771 -16.165,-23.753 -16.165,-38.946 0,-15.224 5.402,-28.205 16.207,-38.95 h -0.042 c 10.746,-10.753 23.715,-16.125 38.91,-16.125 15.223,-0.002 28.208,5.37 38.962,16.123 z"
           id="path6453"
           style="fill:#ffffff;fill-rule:evenodd" />
      </g>
      <g
         id="g6455">
        <path
           d="m 380.86,622.329 c -2.378,0 -3.738,1.768 -3.738,5.55 0,3.67 1.472,5.21 3.852,5.21 2.266,0 4.303,-1.587 4.303,-1.587 l 1.248,2.041 c 0,0 -2.379,2.469 -5.936,2.469 -4.598,0 -7.249,-2.763 -7.249,-8.02 0,-5.323 2.989,-8.494 7.634,-8.494 2.741,0 5.278,1.065 5.278,1.065 l -0.112,4.304 h -2.22 l -0.522,-2.175 c -0.001,0 -1.065,-0.363 -2.538,-0.363 z"
           id="path6457"
           style="fill:#ffffff" />
        <path
           d="m 398.461,629.397 c 0,4.077 -2.38,6.569 -6.048,6.569 -3.692,0 -5.776,-1.926 -5.776,-6.229 0,-4.077 2.423,-6.455 6.116,-6.455 3.67,0 5.708,2.218 5.708,6.115 z m -8.314,0.228 c 0,2.603 0.725,3.736 2.379,3.736 1.632,0 2.424,-1.02 2.424,-3.852 0,-2.423 -0.68,-3.623 -2.31,-3.623 -1.655,10e-4 -2.493,0.906 -2.493,3.739 z"
           id="path6459"
           style="fill:#ffffff" />
        <path
           d="m 418.1,633.361 1.541,0.566 v 1.812 h -6.07 v -1.812 l 1.201,-0.566 v -5.323 c 0,-1.246 -0.362,-1.858 -1.314,-1.858 -1.473,0 -2.514,1.178 -2.514,1.178 v 6.004 l 1.177,0.566 v 1.812 h -5.708 v -1.812 l 1.179,-0.566 v -5.323 c 0,-1.246 -0.317,-1.858 -1.292,-1.858 -1.472,0 -2.536,1.178 -2.536,1.178 v 6.004 l 1.2,0.566 v 1.812 h -6.275 v -1.812 l 1.744,-0.566 v -7.431 l -1.722,-0.431 v -1.811 l 4.667,-0.182 0.159,1.606 c 0,0 1.972,-1.832 3.963,-1.832 1.564,0 2.56,0.745 3.081,1.945 0.386,-0.383 2.084,-1.945 4.1,-1.945 2.311,0 3.42,1.539 3.42,4.075 v 6.004 z"
           id="path6461"
           style="fill:#ffffff" />
        <path
           d="m 438.986,633.361 1.541,0.566 v 1.812 h -6.072 v -1.812 l 1.201,-0.566 v -5.323 c 0,-1.246 -0.362,-1.858 -1.314,-1.858 -1.472,0 -2.514,1.178 -2.514,1.178 v 6.004 l 1.179,0.566 v 1.812 h -5.709 v -1.812 l 1.178,-0.566 v -5.323 c 0,-1.246 -0.316,-1.858 -1.291,-1.858 -1.473,0 -2.537,1.178 -2.537,1.178 v 6.004 l 1.2,0.566 v 1.812 h -6.274 v -1.812 l 1.743,-0.566 v -7.431 l -1.72,-0.431 v -1.811 l 4.665,-0.182 0.158,1.606 c 0,0 1.972,-1.832 3.965,-1.832 1.563,0 2.56,0.745 3.082,1.945 0.383,-0.383 2.084,-1.945 4.099,-1.945 2.312,0 3.421,1.539 3.421,4.075 v 6.004 z"
           id="path6463"
           style="fill:#ffffff" />
        <path
           d="m 445.602,623.508 v 9.854 l 1.585,0.566 v 1.812 h -6.728 v -1.812 l 1.812,-0.566 v -7.408 l -1.812,-0.453 v -1.811 l 5.143,-0.182 z m -1.813,-5.777 c 1.178,0 1.902,0.611 1.902,2.037 0,1.336 -0.974,2.062 -1.902,2.062 -1.224,0 -1.948,-0.727 -1.948,-2.062 0,-1.289 0.928,-2.037 1.948,-2.037 z"
           id="path6465"
           style="fill:#ffffff" />
        <path
           d="m 448.908,630.53 v -4.237 h -2.106 v -2.151 l 2.106,-0.294 v -3.127 l 3.33,-0.612 v 3.739 h 3.171 v 2.445 h -3.171 v 5.119 c 0,1.451 0.248,2.041 1.199,2.041 0.613,0 1.496,-0.364 1.79,-0.523 l 0.815,1.632 c -1.087,0.77 -2.56,1.405 -3.851,1.405 -2.558,0 -3.283,-1.518 -3.283,-5.437 z"
           id="path6467"
           style="fill:#ffffff" />
        <path
           d="m 463.383,622.329 c -2.379,0 -3.736,1.768 -3.736,5.55 0,3.67 1.472,5.21 3.85,5.21 2.265,0 4.304,-1.587 4.304,-1.587 l 1.247,2.041 c 0,0 -2.38,2.469 -5.936,2.469 -4.599,0 -7.25,-2.763 -7.25,-8.02 0,-5.323 2.991,-8.494 7.635,-8.494 2.74,0 5.278,1.065 5.278,1.065 l -0.112,4.304 h -2.221 l -0.521,-2.175 c 0,0 -1.066,-0.363 -2.538,-0.363 z"
           id="path6469"
           style="fill:#ffffff" />
        <path
           d="m 474.074,618.185 v 6.637 c 0.657,-0.543 2.129,-1.539 3.805,-1.539 2.312,0 3.513,1.539 3.513,4.075 v 6.004 l 1.586,0.566 v 1.812 h -6.116 v -1.812 l 1.178,-0.545 v -5.504 c 0,-1.133 -0.454,-1.812 -1.496,-1.812 -1.268,0 -2.469,1.201 -2.469,1.201 v 6.094 l 1.201,0.566 v 1.812 h -6.343 v -1.812 l 1.812,-0.566 V 620.63 l -1.812,-0.454 v -1.811 l 5.141,-0.18 z"
           id="path6471"
           style="fill:#ffffff" />
        <path
           d="m 490.543,635.74 -0.407,-1.474 c 0,0 -1.745,1.7 -3.671,1.7 -2.198,0 -3.511,-1.292 -3.511,-3.557 0,-2.673 1.994,-3.739 5.437,-3.739 h 1.585 v -1.245 c 0,-1.201 -0.611,-1.698 -1.744,-1.698 -1.154,0 -1.992,0.339 -1.992,0.339 l -0.34,1.475 h -2.039 l -0.159,-3.354 c 0,0 2.742,-0.904 4.917,-0.904 3.442,0 4.711,1.199 4.711,4.483 v 5.596 l 1.699,0.407 v 1.812 l -4.486,0.159 z m -2.99,-2.311 c 1.201,0 2.423,-1.314 2.423,-1.314 v -1.517 h -1.29 c -1.767,0 -2.469,0.453 -2.469,1.472 0,0.86 0.476,1.359 1.336,1.359 z"
           id="path6473"
           style="fill:#ffffff" />
        <path
           d="m 499.649,623.508 0.158,1.562 c 0,0 2.152,-1.745 4.168,-1.745 2.198,0 3.376,1.563 3.376,4.032 v 6.004 c 0.544,0.182 1.064,0.385 1.585,0.566 v 1.812 h -6.115 v -1.812 l 1.2,-0.566 v -5.482 c 0,-1.043 -0.589,-1.812 -1.54,-1.812 -1.405,0 -2.425,1.291 -2.425,1.291 v 6.004 l 1.179,0.566 v 1.812 h -6.275 v -1.812 l 1.744,-0.566 v -7.408 l -1.744,-0.453 v -1.811 l 4.689,-0.182 z"
           id="path6475"
           style="fill:#ffffff" />
        <path
           d="m 511.428,635.513 c 0,0 -1.357,-0.203 -1.357,-1.495 0,-0.656 0.906,-2.129 1.177,-2.559 -0.544,-0.362 -1.744,-1.337 -1.744,-3.534 0,-3.104 2.334,-4.643 5.437,-4.643 1.313,0 2.242,0.339 2.672,0.542 l 3.897,-0.091 v 1.813 l -1.857,0.315 c 0.045,0.204 0.386,0.816 0.386,1.791 0,3.283 -2.311,4.644 -5.438,4.644 -0.61,0 -1.064,-0.113 -1.155,-0.113 l -0.089,1.517 h 3.352 c 2.877,0 4.53,1.246 4.53,3.512 0,2.492 -1.993,4.304 -6.341,4.304 -3.558,0 -5.847,-0.793 -5.847,-3.284 -0.002,-1.948 2.377,-2.719 2.377,-2.719 z m 1.993,0.679 c 0,0 -1.087,0.5 -1.087,1.473 0,1.132 0.974,1.357 2.831,1.357 2.04,0 2.9,-0.451 2.9,-1.538 0,-1.02 -0.747,-1.292 -2.265,-1.292 h -2.379 z m -0.521,-8.426 c 0,1.359 0.521,2.267 1.812,2.267 1.427,0 1.926,-0.75 1.926,-2.267 0,-1.428 -0.566,-2.153 -1.812,-2.153 -1.358,-0.001 -1.926,0.725 -1.926,2.153 z"
           id="path6477"
           style="fill:#ffffff" />
        <path
           d="m 525.02,630.37 c 0.136,1.881 1.179,2.946 2.719,2.946 1.881,0 3.805,-1.065 3.805,-1.065 l 0.975,1.812 c 0,0 -2.266,1.903 -5.164,1.903 -3.896,0 -5.891,-2.267 -5.891,-6.118 0,-3.962 2.244,-6.566 6.049,-6.566 3.375,0 5.164,2.082 5.164,5.322 0,0.859 -0.135,1.698 -0.135,1.698 l -7.522,0.068 z m 0.044,-2.106 h 4.078 c 0,-1.359 -0.544,-2.333 -1.857,-2.333 -1.245,0 -2.039,0.929 -2.221,2.333 z"
           id="path6479"
           style="fill:#ffffff" />
      </g>
    </g>
  </g>
</svg>
