<?xml version="1.0" standalone="yes"?>

<svg version="1.1" viewBox="0.0 0.0 595.0 274.0" fill="none" stroke="none" stroke-linecap="square" stroke-miterlimit="10" xmlns="http://www.w3.org/2000/svg" xmlns:xlink="http://www.w3.org/1999/xlink"><clipPath id="p.0"><path d="m0 0l595.0 0l0 274.0l-595.0 0l0 -274.0z" clip-rule="nonzero"></path></clipPath><g clip-path="url(#p.0)"><path fill="#000000" fill-opacity="0.0" d="m0 0l595.0 0l0 274.0l-595.0 0z" fill-rule="nonzero"></path><path fill="#316318" d="m496.03674 211.10892l0 14.718048l-198.53543 33.78589l-198.53543 -33.78589l0 -14.718048z" fill-rule="nonzero"></path><path stroke="#316318" stroke-width="24.0" stroke-linejoin="round" stroke-linecap="butt" d="m496.03674 211.10892l0 14.718048l-198.53543 33.78589l-198.53543 -33.78589l0 -14.718048z" fill-rule="nonzero"></path><path fill="#783f04" d="m495.84778 62.8832l0 -13.995205l-198.34647 -34.63472l-198.34647 34.63472l0 13.995205z" fill-rule="nonzero"></path><path stroke="#783f04" stroke-width="24.0" stroke-linejoin="round" stroke-linecap="butt" d="m495.84778 62.8832l0 -13.995205l-198.34647 -34.63472l-198.34647 34.63472l0 13.995205z" fill-rule="nonzero"></path><path fill="#b7b7b7" d="m10.775591 62.88845l573.44885 0l0 148.22049l-573.44885 0z" fill-rule="nonzero"></path><path fill="#000000" d="m10.27431 62.247944l574.4488 0l0 0l-574.4488 0zm0 149.50148l574.4488 0l0 0l-574.4488 0z" fill-rule="nonzero"></path><path stroke="#000000" stroke-width="16.0" stroke-linejoin="round" stroke-linecap="butt" d="m10.27431 62.247944l574.4488 0l0 0l-574.4488 0zm0 149.50148l574.4488 0l0 0l-574.4488 0z" fill-rule="nonzero"></path><path fill="#999999" d="m10.776903 70.23622l0 66.83464l573.4488 -66.83464z" fill-rule="nonzero"></path><path fill="#000000" fill-opacity="0.0" d="m10.77157 72.178474l573.44885 0l0 129.63779l-573.44885 0z" fill-rule="nonzero"></path><path fill="#000000" d="m53.861355 141.24736q-7.71875 1.0625 -12.765625 1.0625q-1.734375 0 -1.734375 -1.328125q0 -3.0625 4.1875 -6.453125q4.1875 -3.390625 13.640625 -5.921875q4.25 -15.15625 9.703121 -27.796875q-13.296871 0.65625 -21.812496 8.78125q-2.125 2.125 -3.453125 3.328125q-1.328125 1.1875 -2.328125 1.1875q-1.0 0 -1.9375 -1.59375q-0.921875 -1.59375 -0.921875 -4.25q0.125 -10.25 13.828125 -16.625q13.703125 -6.390625 33.781246 -6.25l39.90625 0.65625q3.578125 0 3.578125 2.796875q0 0.796875 -1.0625 2.859375q-1.0625 2.0625 -1.859375 4.453125q-1.734375 4.78125 -7.453125 4.78125l-4.25 0l-17.6875 -0.125l-10.234375 0q-1.078125 7.578125 -6.390625 24.734375l24.34375 0.40625q2.125 0 2.125 2.515625q0 0.796875 -0.671875 2.796875q-0.65625 2.0 -1.1875 4.125q-1.0625 4.390625 -4.53125 4.390625l-20.21875 -0.9375l-1.71875 0q-0.796875 0 -1.859375 0.140625q-6.921875 25.40625 -6.921875 40.15625q0 7.859375 -15.296871 7.859375q-3.328125 0 -3.921875 -3.390625q-0.59375 -3.390625 -0.59375 -8.984375q0 -11.96875 5.71875 -33.375zm142.23145 12.359375q2.390625 0 2.390625 6.125q0 3.328125 -2.796875 8.046875q-2.796875 4.71875 -7.25 8.640625q-4.453125 3.921875 -9.90625 6.453125q-5.453125 2.53125 -10.640625 2.53125q-7.046875 0 -9.4375 -12.375q-3.453125 5.71875 -9.046875 9.375q-5.578125 3.65625 -14.96875 3.65625q-9.375008 0 -15.093758 -5.84375q-5.71875 -5.859375 -5.578125 -14.234375q0 -22.609375 15.031258 -35.640625q6.375 -5.453125 11.890625 -7.1875q5.53125 -1.734375 11.640625 -1.734375q6.125 0 9.984375 2.125q1.859375 -3.84375 4.25 -3.84375q4.65625 0 8.84375 4.0625q4.1875 4.046875 4.1875 7.640625q-1.859375 4.390625 -5.453125 10.5q-1.0625 6.125 -1.0625 17.171875q0 11.03125 2.796875 11.03125q3.453125 0 16.75 -13.84375q2.40625 -2.65625 3.46875 -2.65625zm-62.78125 7.984375q0 10.234375 7.578125 10.234375q8.109375 -0.125 13.4375 -8.640625q1.859375 -2.921875 3.0625 -7.1875q0 -14.890625 2.65625 -25.53125q-10.765625 2.125 -18.75 10.375q-7.984375 8.25 -7.984375 20.75zm78.128265 1.0625l0.796875 16.21875q0 3.203125 -3.328125 5.734375q-3.3125 2.515625 -9.03125 2.515625q-3.328125 0 -4.59375 -3.453125q-1.265625 -3.453125 -1.265625 -10.109375q0 -13.96875 1.390625 -21.875q1.40625 -7.921875 5.53125 -16.03125q-6.125 -5.84375 -6.125 -10.109375q0 -8.90625 9.578125 -8.90625q4.921875 0 8.640625 5.1875q2.65625 3.59375 3.859375 8.375q1.859375 0.671875 4.65625 0.671875q3.859375 0 8.90625 -2.53125l3.46875 -1.734375q1.59375 -0.796875 2.78125 -0.796875q3.859375 0 7.71875 11.3125q-1.203125 5.1875 -2.59375 9.984375q-1.390625 4.78125 -3.265625 11.5625q-1.859375 6.78125 -1.921875 9.109375q-0.0625 2.328125 1.40625 2.328125q1.984375 0 4.90625 -2.53125q2.9375 -2.53125 5.859375 -5.515625q2.921875 -3.0 5.375 -5.515625q2.46875 -2.53125 3.40625 -2.53125q1.859375 0 1.859375 4.515625q0 9.171875 -8.046875 18.09375q-8.046875 8.90625 -18.421875 8.78125q-6.109375 0 -9.171875 -4.921875q-3.0625 -4.921875 -3.203125 -11.96875q0 -13.96875 6.265625 -26.46875q-2.9375 1.1875 -6.59375 1.1875q-3.65625 0 -5.25 -0.265625q-1.203125 5.0625 -2.40625 10.1875q-1.1875 5.109375 -1.1875 9.5zm114.39975 -18.09375q0 -4.390625 -5.0625 -4.390625q-3.453125 0 -7.71875 6.71875q-4.25 6.71875 -6.109375 14.4375l0 0.265625q0 4.515625 1.390625 9.3125q1.40625 4.78125 1.40625 6.640625q0 4.53125 -11.3125 8.921875q-1.71875 0.65625 -3.046875 0.65625q-3.328125 0 -4.59375 -3.453125q-1.265625 -3.453125 -1.265625 -9.375q0 -5.921875 0.328125 -11.171875q0.34375 -5.25 0.671875 -9.703125q0.328125 -4.46875 0.65625 -7.859375q0.34375 -3.390625 0.34375 -5.515625q0 -4.515625 -4.125 -4.515625q-4.125 0 -9.578125 9.640625q-5.453125 9.640625 -5.453125 15.296875q0 5.640625 1.390625 10.4375q1.40625 4.78125 1.40625 6.640625q0 4.53125 -11.3125305 8.921875q-1.71875 0.65625 -3.046875 0.65625q-3.328125 0 -4.59375 -3.453125q-1.2656097 -3.453125 -1.2656097 -10.640625q0 -18.890625 1.4687347 -27.265625q1.984375 -12.375 9.03125 -23.40625q2.4062805 -3.71875 5.1875305 -3.71875q4.390625 0 8.125 7.171875q1.0625 1.859375 1.59375 3.453125q6.375 -7.96875 15.03125 -7.96875q5.71875 0 10.234375 3.796875q4.53125 3.78125 4.53125 9.5l0 1.46875q8.109375 -10.109375 19.8125 -10.109375q7.171875 0 10.890625 3.71875q3.734375 3.71875 3.734375 9.171875q0 5.453125 -0.796875 9.84375q-0.796875 4.390625 -1.796875 8.25q-1.0 3.859375 -1.796875 6.859375q-0.796875 2.984375 -0.796875 4.65625q0 1.65625 1.0625 1.65625q2.0 0 4.921875 -2.53125q2.921875 -2.53125 5.84375 -5.515625q2.9375 -3.0 5.390625 -5.515625q2.46875 -2.53125 3.40625 -2.53125q1.859375 0 1.859375 4.515625q0 9.3125 -9.390625 18.09375q-9.375 8.78125 -20.0 8.78125q-9.578125 0 -9.578125 -17.4375q0 -4.375 1.453125 -12.09375q1.46875 -7.71875 1.46875 -11.3125zm79.91998 -6.25q-12.90625 0 -12.640625 -6.515625q0 -6.109375 12.375 -6.109375q2.921875 0 5.578125 0.65625q4.390625 -4.390625 4.390625 -13.296875q0 -15.421875 -20.609375 -15.421875q-10.78125 0 -20.484375 4.65625q-3.59375 1.71875 -6.453125 3.1875q-2.859375 1.453125 -5.25 1.453125q-2.390625 0 -2.390625 -1.453125q0 -1.734375 2.65625 -5.125q2.65625 -3.390625 7.453125 -6.84375q12.234375 -8.515625 27.796875 -8.65625q20.34375 0 29.921875 8.125q8.25 6.78125 8.25 18.484375q0 13.5625 -13.3125 20.75q12.78125 7.3125 15.171875 17.953125q0.796875 3.71875 0.796875 9.84375q0 6.109375 -3.328125 11.5625q-3.328125 5.453125 -8.90625 9.1875q-11.171875 7.171875 -28.59375 7.171875q-12.375 0 -27.53125 -5.578125q-10.109375 -3.734375 -14.90625 -8.921875q-2.390625 -2.515625 -2.328125 -5.046875q0.078125 -2.53125 2.53125 -2.53125q2.46875 0 9.375 1.734375l0 -0.140625q0 -10.375 2.390625 -21.28125q4.125 -19.015625 9.578125 -29.78125q5.859375 -11.96875 12.109375 -11.96875q1.734375 0 1.734375 5.984375q0 5.984375 -1.140625 12.234375q-1.125 6.25 -2.390625 12.3125q-1.265625 6.046875 -2.40625 10.96875q-1.125 4.90625 -1.125 7.046875l-1.328125 20.078125q7.859375 2.125 13.3125 2.125q5.453125 0 9.828125 -1.859375q11.046875 -4.65625 11.046875 -16.234375q0 -6.90625 -1.328125 -11.421875q-1.328125 -4.53125 -4.796875 -7.984375q-3.046875 0.65625 -5.046875 0.65625zm97.84949 35.375q-10.5 12.375 -25.203125 12.375q-14.6875 0 -22.015625 -7.515625q-7.3125 -7.515625 -7.171875 -18.6875q-0.140625 -15.828125 9.96875 -27.265625q10.109375 -11.4375 26.46875 -11.4375q7.453125 0 11.96875 1.859375q7.84375 3.203125 7.84375 5.984375q0 2.140625 -10.96875 2.203125q-10.96875 0.0625 -18.359375 7.578125q-7.375 7.515625 -7.375 18.953125q0 5.984375 3.515625 10.046875q3.53125 4.046875 9.984375 4.046875q6.453125 0 10.703125 -2.65625q-9.4375 -6.390625 -9.4375 -18.484375q-0.140625 -6.390625 4.578125 -11.640625q4.734375 -5.25 12.109375 -5.3125q7.390625 -0.078125 10.578125 4.046875q3.1874695 4.125 3.1874695 10.578125q0 6.453125 -3.0624695 13.625l0.796875 0q5.8593445 -0.125 10.1093445 -4.109375q1.59375 -1.609375 2.71875 -2.796875q1.140625 -1.203125 2.34375 -1.203125q1.859375 0 1.859375 4.390625q0 8.109375 -4.796875 12.171875q-4.78125 4.0625 -10.5625 4.0625q-5.7812195 0 -9.7812195 -0.8125zm-1.1875 -15.421875q2.25 -4.78125 2.25 -9.296875q0 -4.53125 -2.921875 -4.53125q-1.203125 0 -2.0 1.734375q-0.796875 1.71875 -0.796875 3.3125q0 5.328125 3.46875 8.78125zm25.772186 19.5q-1.53125 -3.53125 -2.203125 -8.25q-0.65625 -4.734375 -0.65625 -13.234375q0 -8.515625 3.1875 -23.015625l-5.984375 0q-1.59375 0 -1.59375 -1.328125q0 -3.203125 0.59375 -5.25q0.609375 -2.0625 2.875 -4.734375l3.1875 0q1.859375 0 3.984375 -0.125q6.390625 -20.484375 13.03125 -20.484375q5.328125 0.125 7.453125 6.78125q0.53125 1.859375 1.203125 3.984375l-5.453125 9.578125q9.3125 0.265625 11.765625 0.265625q2.453125 0 2.65625 0.46875q0.203125 0.46875 0.203125 1.390625q0 2.40625 -1.140625 6.0q-1.125 3.578125 -2.578125 3.453125l-13.3125 -0.671875q-2.78125 16.234375 -2.78125 26.875q0 10.640625 3.046875 10.640625q2.53125 0 9.171875 -4.1875q6.65625 -4.203125 9.578125 -8.046875q2.9375 -3.859375 4.796875 -3.859375q1.859375 0 1.859375 4.53125q0 4.515625 -3.1875 9.234375q-3.1875 4.71875 -8.046875 8.640625q-4.859375 3.921875 -10.78125 6.453125q-5.90625 2.53125 -10.296875 2.53125q-4.390625 0 -6.71875 -2.0625q-2.328125 -2.0625 -3.859375 -5.578125z" fill-rule="nonzero"></path></g></svg>

