<?xml version="1.0" encoding="utf-8"?>
<!-- Generator: Adobe Illustrator 17.0.0, SVG Export Plug-In . SVG Version: 6.00 Build 0)  -->
<!DOCTYPE svg PUBLIC "-//W3C//DTD SVG 1.0//EN" "http://www.w3.org/TR/2001/REC-SVG-20010904/DTD/svg10.dtd">
<svg version="1.0" id="Layer_1" xmlns="http://www.w3.org/2000/svg" xmlns:xlink="http://www.w3.org/1999/xlink" x="0px" y="0px"
	 width="32px" height="32px" viewBox="0 0 32 32" enable-background="new 0 0 32 32" xml:space="preserve">
<g id="Wordmark" display="none">
	<path display="inline" fill="#454545" d="M10.942,21.991c-3.133,0-5.577-2.508-5.577-5.625c0-3.086,2.475-5.623,5.577-5.623
		c1.754,0,3.132,0.705,4.198,1.942l-1.661,1.441c-0.611-0.72-1.535-1.238-2.554-1.238c-1.863,0-3.305,1.521-3.305,3.478
		c0,1.99,1.504,3.494,3.305,3.494c0.799,0,1.676-0.235,2.24-0.799v-1.364h-2.192v-1.895h4.276v4.136
		C14.2,21.191,12.821,21.991,10.942,21.991z"/>
	<path display="inline" fill="#454545" d="M19.325,21.849v-1.848h1.362v-7.253h-1.362v-1.864h4.965v1.864h-1.362v7.253h1.362v1.848
		H19.325z"/>
	<path display="inline" fill="#454545" d="M29.926,21.849v-8.897h-2.1v-2.067h6.455v2.067h-2.1v8.897H29.926z"/>
	<path display="inline" fill="#454545" d="M39.617,21.849v-8.897h-2.101v-2.067h6.453v2.067h-2.098v8.897H39.617z"/>
	<path display="inline" fill="#454545" d="M47.516,21.849v-1.848h1.361v-7.253h-1.361v-1.864h4.966v1.864h-1.363v7.253h1.363v1.848
		H47.516z"/>
	<path display="inline" fill="#454545" d="M56.967,21.849V10.884h3.994c2.16,0,3.539,1.394,3.539,3.602s-1.379,3.587-3.539,3.587
		h-1.771v3.774H56.967z M62.353,14.487c0-1.002-0.642-1.566-1.738-1.566h-1.426v3.117h1.426
		C61.696,16.038,62.353,15.49,62.353,14.487z"/>
</g>
<g id="Heart_Coin">
	<circle id="Coin" fill="#663300" cx="16" cy="16" r="15"/>
	<path id="Heart" fill="#FFFFFF" d="M22.1,10.346c-1.688-1.113-3.292-0.27-4.132,0.707c-0.313,0.364-0.851,0.793-1.864,0.793
		s-1.551-0.429-1.864-0.793c-0.841-0.977-2.444-1.819-4.132-0.707c-1.982,1.307-1.406,3.67-0.828,4.35l6.824,9.24l0,0l0,0l0,0l0,0
		l6.824-9.24C23.505,14.017,24.082,11.653,22.1,10.346z"/>
	<path id="Old_Heart__x28_old_x29_" display="none" fill="#FFFFFF" d="M16.086,25.114c0,0-12.939-11.731-7.178-15.744
		c3.448-2.731,6.801,3.006,7.195,3.818c0.751-1.362,3.875-6.477,7.35-3.736C28.83,13.8,16.086,25.114,16.086,25.114z"/>
</g>
<g>
</g>
<g>
</g>
<g>
</g>
<g>
</g>
<g>
</g>
<g>
</g>
<g>
</g>
<g>
</g>
<g>
</g>
<g>
</g>
<g>
</g>
<g>
</g>
<g>
</g>
<g>
</g>
<g>
</g>
</svg>
