<?xml version="1.0" encoding="utf-8"?>
<!-- Generator: Adobe Illustrator 16.0.4, SVG Export Plug-In . SVG Version: 6.00 Build 0)  -->
<!DOCTYPE svg PUBLIC "-//W3C//DTD SVG 1.1//EN" "http://www.w3.org/Graphics/SVG/1.1/DTD/svg11.dtd">
<svg version="1.1" id="Layer_1" xmlns="http://www.w3.org/2000/svg" xmlns:xlink="http://www.w3.org/1999/xlink" x="0px" y="0px"
	 width="300px" height="300px" viewBox="0 0 300 300" enable-background="new 0 0 300 300" xml:space="preserve">
<g>
	<path fill="#38BA9B" d="M171.253,131.781l4.451,1.049c-1.559-1.422-3.11-2.783-4.451-3.635V131.781z"/>
	<g>
		<rect x="223.86" y="46.107" fill="#38BA9B" width="49.057" height="8.298"/>
		<path fill="#38BA9B" d="M248.61,27.422c-13.015,0-17.753,5.892-24.23,17.844c5.097-0.019,48.301-0.033,48.301-0.033
			C266.225,33.414,262.165,27.422,248.61,27.422z"/>
		<linearGradient id="SVGID_1_" gradientUnits="userSpaceOnUse" x1="150.3032" y1="165.6797" x2="150.3032" y2="26.5947">
			<stop  offset="0" style="stop-color:#1C3C6D"/>
			<stop  offset="0.1152" style="stop-color:#225877"/>
			<stop  offset="0.2884" style="stop-color:#2A7B84"/>
			<stop  offset="0.4639" style="stop-color:#30978E"/>
			<stop  offset="0.6403" style="stop-color:#35AA95"/>
			<stop  offset="0.8182" style="stop-color:#37B69A"/>
			<stop  offset="1" style="stop-color:#38BA9B"/>
		</linearGradient>
		<path fill="url(#SVGID_1_)" d="M282.648,62.458v-0.243h-4.842v-0.026h-57.595v0.026h-0.94l-0.004-0.865h58.315v-6.113h-58.349
			l-0.013-1.984h-7.347V28.036l-18.288,6.532v18.686h-6.748v8.087h-15.586v-8.087l-4.416-8.42L146.224,72.85h-7.341l0.094,25.482
			l-10.062-0.013V69.718l-7.116-10.79V48.783h-1.313v10.146h-4.254v39.391h-7.775V59.738c0,0-3.2-32.026-35.842-33.144H51.646
			v11.293H37.195v8.117h-6.59v17.754l-12.766,0.034v0.088c-0.161,0.157-39.15,44.163,2.481,101.799l-0.977-14.772l11.181-6.314
			l78.765-0.81c4.243-2.942,3.95-4.103,7.509-5.529l-25.929-0.026v-6.927h47.962l0.063-0.458v-3.772H90.869v-6.93h48.191
			l0.033,9.233l-0.199,1.469v0.352h3.18c0.042,0.021,0.08,0.046,0.121,0.067c0.731,0.54,1.4,1.024,1.848,1.24
			c3.657,3.109,4.224,7.91,4.224,7.91c15.957-12.44,22.388-11.599,22.388-11.599c0.189,0.101,0.399,0.254,0.598,0.381v-10.449
			h15.586v16.71l-11.135-2.627c2.106,1.917,4.206,3.879,5.74,4.616l5.395,2.864l2.698,3.069c5.323,2.245,8.357,2.605,12.407,3.776
			h17.804l-0.004-0.551l55.437-0.123l3.91,19.151C279.091,165.634,322.521,116.676,282.648,62.458z M82.316,57.199h9.345v12.167
			h-9.345V57.199z M56.341,57.199h9.347v12.167h-9.347V57.199z M27.289,125.103H17.033v-11.909h10.255V125.103z M27.289,110.201
			H17.235V96.268h10.053V110.201z M27.342,93.108h-9.918V73.271h9.918V93.108z M40.304,140.512H30.116v-11.943h10.188V140.512z
			 M40.304,125.339H30.116v-12.077h10.188V125.339z M40.304,110.201h-9.918V96.268h9.918V110.201z M40.425,93.108h-9.918V73.271
			h9.918V93.108z M52.905,140.597h-9.343v-12.169h9.343V140.597z M52.905,113.207v12.176h-9.343h-0.02v-12.255h9.363V113.207z
			 M52.905,110.168h-9.343V96.123h9.343V110.168z M52.905,93.078h-9.343V73.427h9.343V93.078z M52.905,69.366h-9.42V57.168h9.42
			V69.366z M65.688,140.597h-9.347v-12.169h9.347V140.597z M65.688,125.382h-9.347v-12.176h9.347V125.382z M65.688,110.168h-9.347
			V96.123h9.347V110.168z M65.693,93.181h-9.353v-0.103V73.427h9.347h0.005V93.181z M78.671,140.597h-9.339v-12.169h9.339V140.597z
			 M78.671,125.382h-9.339v-12.176h9.339V125.382z M78.671,110.168h-9.339V96.123h9.339V110.168z M78.671,93.078h-9.339V73.427
			h9.339V93.078z M78.671,69.366h-9.339V57.199h9.339V69.366z M82.316,93.078V73.427h9.345v19.651H82.316z M90.869,115.917v-6.937
			l48.148-0.059l0.026,6.996H90.869z M142.799,131.603c0.255,0.159,0.491,0.329,0.724,0.503L142.799,131.603z M153.721,124.947
			h-9.292v-12.666h9.292V124.947z M153.721,103.384h-9.292V81.289h9.292V103.384z M165.706,124.947h-9.284v-12.666h9.284V124.947z
			 M165.706,103.384h-9.284V81.289h9.284V103.384z M165.706,72.388h-9.284l9.284-12.663V72.388z M186.839,113.894h-15.586V95.293
			h15.586V113.894z M186.839,91.151h-15.586V66.194h15.586V91.151z M201.684,124.947h-9.299v-12.666h9.299V124.947z
			 M201.684,103.384h-9.299V81.289h9.299V103.384z M201.684,72.388h-9.299V59.725h9.299V72.388z M213.67,124.947h-9.293v-12.666
			h9.293V124.947z M213.67,103.384h-9.293V81.289h9.293V103.384z M213.67,72.388h-9.293V59.725h9.293V72.388z M230.154,136.979
			h-10.462l-0.058-10.341h10.52V136.979z M230.154,120.905h-10.554l-0.059-10.336h10.612V120.905z M230.154,104.822h-10.642
			l-0.061-10.333h10.702V104.822z M230.154,86.524h-10.747l-0.105-19.219h10.853V86.524z M246.904,136.979h-12.282v-10.341h12.282
			V136.979z M246.904,120.905h-12.282v-10.336h12.282V120.905z M246.904,104.822h-12.282V94.488h12.282V104.822z M246.904,86.524
			h-12.282V67.305h12.282V86.524z M263.665,136.979H251.38v-10.341h12.285V136.979z M263.665,120.905H251.38v-10.336h12.285V120.905
			z M263.665,104.822H251.38V94.488h12.285V104.822z M263.665,86.524H251.38V67.305h12.285V86.524z M280.416,136.979h-12.292
			v-10.341h12.292V136.979z M280.416,120.905h-12.292v-10.336h12.292V120.905z M280.416,104.822h-12.292V94.488h12.292V104.822z
			 M280.416,86.524h-12.292V67.305h12.292V86.524z"/>
	</g>
	<path fill="#1C3C6E" d="M281.759,154.844c-0.084-10.198-11.005-13.062-16.842-13.151h-57.889c-7.068,0-12.615-1.594-13.989-2.027
		l-14.19-9.315c-4.502-3.467-9.078-5.226-13.623-5.226c-7.396,0-11.895,4.739-12.028,4.884l-3.43,3.491l-3.631-3.702
		c-0.133-0.145-4.634-4.883-12.034-4.883c-4.537,0-9.121,1.758-13.621,5.223l-14.194,9.317c-1.372,0.432-6.916,2.026-13.985,2.026
		h-57.89c-5.833,0.091-16.759,2.956-16.839,13.153c-0.065,1.099-0.254,7.53,3.735,12.023c1.799,2.032,26.158,24.329,30.838,28.364
		l14.773,13.531c0.598,0.636,2.534,2.401,5.666,2.991c-1.296,2.034-2.011,4.391-2.011,6.861c0,3.432,1.333,6.655,3.759,9.078
		c2.423,2.426,5.651,3.767,9.081,3.767c0.929,0,1.834-0.115,2.72-0.308c-0.239,0.991-0.404,2.002-0.404,3.044
		c0,3.43,1.338,6.655,3.761,9.076c2.428,2.429,5.655,3.766,9.085,3.766c0.713,0,1.406-0.092,2.094-0.203
		c-0.114,0.689-0.204,1.385-0.204,2.097c0,3.432,1.336,6.655,3.759,9.078c2.429,2.431,5.656,3.765,9.085,3.765
		c0.393,0,0.773-0.076,1.162-0.111c-0.036,0.389-0.115,0.771-0.115,1.163c0,3.433,1.338,6.656,3.766,9.081
		c2.422,2.427,5.649,3.765,9.079,3.765c3.431,0,6.655-1.336,9.077-3.761l9.192-9.189c1.493,2.347,5.371,6.187,7.583,7.727
		c8.721,7.897,22.55,0.167,21.807-12.041c8.675,3.574,18.33-3.645,18.162-13.646c8.189,2.621,16.703-3.814,17.184-12.959
		c9.626,2.234,18.582-7.528,15.839-17.807c-0.177-0.651-0.431-1.261-0.695-1.865c3.957-0.231,6.376-2.429,7.061-3.156l14.776-13.529
		c4.682-4.04,29.034-26.339,30.839-28.363C282.012,162.376,281.821,155.94,281.759,154.844z M88.028,223.023
		c-2.461,2.462-6.761,2.464-9.23-0.004c-1.232-1.232-1.912-2.87-1.912-4.613c0-1.741,0.679-3.376,1.912-4.611l9.456-9.452
		l19.63-19.269c0.973-0.555,2.065-0.881,3.211-0.881c1.745,0,3.386,0.684,4.62,1.913c1.23,1.233,1.911,2.872,1.911,4.617
		c0,1.743-0.681,3.383-1.911,4.611L88.028,223.023z M103.187,238.606c-2.458,2.456-6.76,2.462-9.229-0.009
		c-1.231-1.229-1.913-2.87-1.913-4.61c0-1.743,0.682-3.383,1.913-4.613l27.684-27.691c1.232-1.232,2.876-1.909,4.616-1.909
		c1.746,0,3.383,0.677,4.615,1.909c1.229,1.233,1.912,2.879,1.912,4.618c0,1.744-0.678,3.381-1.912,4.615L103.187,238.606z
		 M117.921,253.341c-2.461,2.461-6.76,2.461-9.229-0.005c-1.231-1.233-1.915-2.873-1.915-4.613s0.683-3.377,1.915-4.613
		l27.686-27.688c1.23-1.23,2.874-1.906,4.615-1.906c1.744,0,3.381,0.676,4.613,1.906c1.23,1.233,1.914,2.874,1.914,4.619
		c0,1.743-0.68,3.377-1.914,4.614L117.921,253.341z M131.817,267.236c-2.465,2.465-6.761,2.465-9.233,0
		c-1.23-1.239-1.908-2.874-1.908-4.619c0-1.736,0.678-3.378,1.908-4.611l27.689-27.69c1.233-1.232,2.871-1.906,4.61-1.906
		c1.745,0,3.384,0.674,4.62,1.906c1.23,1.238,1.908,2.876,1.908,4.617c0,1.742-0.678,3.385-1.908,4.618L131.817,267.236z
		 M208.275,222.13c-0.81-1.119-2.537-3.17-3.165-3.73c-1.429-1.648-4.075,0.185-4.939,1.68c-1.054,1.84-0.089,3.12,0.897,4.56
		c1.303,1.919,2.659,3.689,2.659,6.229c-0.009,7.146-8.403,9.775-12.252,4.318c-1.058-1.492-2.495-3.225-3.625-3.23
		c-2.401-0.009-4.877,2.032-4.729,4.659c0.067,1.23,1.272,2.725,2.107,4.067c1.833,2.601,1.618,6.492-0.357,9.011
		c-1.999,2.528-5.467,3.243-8.165,1.785c-1.77-0.953-3.771-3.094-4.986-4.392c-0.687-0.74-3.151-0.74-4.189,0
		c-1.441,1.045-2.335,4.01-1.525,5.704c1.656,3.449,3.537,6.824,1.139,10.632c-2.634,4.173-7.329,3.112-10.972,0.208
		c-1.846-1.471-4.149-4.241-5.611-6.21l13.405-13.407c2.423-2.423,3.763-5.648,3.763-9.08c0-3.431-1.34-6.65-3.763-9.079
		c-2.424-2.426-5.647-3.759-9.084-3.759c-0.392,0-0.771,0.078-1.158,0.111c0.033-0.39,0.109-0.771,0.109-1.166
		c0-3.431-1.336-6.659-3.76-9.082c-2.423-2.43-5.649-3.762-9.081-3.762c-0.712,0-1.411,0.094-2.097,0.205
		c0.11-0.689,0.201-1.39,0.201-2.101c0-3.43-1.333-6.655-3.759-9.086c-2.423-2.422-5.652-3.757-9.081-3.757
		c-0.93,0-1.835,0.117-2.719,0.308c0.239-0.991,0.403-2,0.403-3.042c0-3.429-1.338-6.657-3.761-9.082
		c-1.563-1.562-3.472-2.613-5.538-3.205c-4.537-1.323-8.887-0.402-12.623,3.205l-15.54,15.539l-3.958,3.935
		c-2.889,2.827-5.616,4.323-7.885,4.323c-1.969,0-3.07-1.159-3.111-1.207l-0.241-0.243c0,0-44.013-40.134-45.234-41.497
		c-2.486-2.779-2.174-7.452-2.17-7.499c0.012-6.953,10.474-7.194,10.582-7.194h57.84c9.279,0,16.139-2.399,16.423-2.494l0.677-0.342
		l14.739-9.682c3.563-2.732,6.849-4.048,9.96-4.048c4.607,0,7.442,2.898,7.471,2.93l3.774,3.847l-27.07,27.798l5.585,5.723
		l6.71,6.17l0.334,0.267c3.033,2.11,6.396,3.176,10.005,3.176c7.572,0,13.541-4.803,13.937-5.131l14.001-12.911l43.538,42.738
		c0.939,0.921,1.881,1.722,2.816,2.437c1.883,2.718,4.774,5.882,4.771,9.406C219.976,224.801,212.169,227.495,208.275,222.13z
		 M273.283,162.703c-1.222,1.361-45.24,41.499-45.24,41.499l-0.237,0.236c-0.045,0.053-1.142,1.212-3.11,1.212
		c-2.271,0-4.994-1.494-7.885-4.319l-47.825-46.943l-18.274,16.855c-0.042,0.034-4.541,3.588-9.798,3.588
		c-2.264,0-4.303-0.638-6.232-1.936l-7.432-6.827l3.235-3.173l7.686-8.558l19.59-19.967c0.028-0.028,2.864-2.932,7.467-2.932
		c3.116,0,6.403,1.318,9.96,4.05l14.739,9.685l0.678,0.338c0.287,0.103,7.145,2.494,16.426,2.494h57.838
		c0.106,0.004,10.574,0.243,10.587,7.196C275.459,155.249,275.771,159.923,273.283,162.703z"/>
</g>
</svg>
