<?xml version="1.0" standalone="no"?>
<!DOCTYPE svg PUBLIC "-//W3C//DTD SVG 20010904//EN"
 "http://www.w3.org/TR/2001/REC-SVG-20010904/DTD/svg10.dtd">
<svg version="1.0" xmlns="http://www.w3.org/2000/svg"
 width="200.000000pt" height="156.000000pt" viewBox="0 0 200.000000 156.000000"
 preserveAspectRatio="xMidYMid meet">
<metadata>
Created by potrace 1.15, written by Peter Selinger 2001-2017
</metadata>
<g transform="translate(0.000000,156.000000) scale(0.100000,-0.100000)"
fill="#000000" stroke="none">
<path d="M370 1015 l0 -355 510 0 511 0 -3 -102 -3 -103 -407 -3 -408 -2 0 60
0 60 -100 0 -100 0 0 -215 0 -216 98 3 97 3 3 58 3 57 407 -2 407 -3 3 -58 3
-57 99 0 100 0 0 420 0 420 -100 0 -100 0 0 -60 0 -60 -410 0 -410 0 0 105 0
105 510 0 510 0 0 150 0 150 -100 0 -100 0 0 -50 0 -50 -410 0 -410 0 0 50 0
50 -100 0 -100 0 0 -355z"/>
</g>
</svg>
