<?xml version="1.0" encoding="UTF-8" standalone="no"?>
<svg width="73px" height="66px" viewBox="0 0 73 66" version="1.1" xmlns="http://www.w3.org/2000/svg" xmlns:xlink="http://www.w3.org/1999/xlink" xmlns:sketch="http://www.bohemiancoding.com/sketch/ns">
    <title>Slice 1</title>
    <description>Created with Sketch (http://www.bohemiancoding.com/sketch)</description>
    <defs></defs>
    <g id="Page-1" stroke="none" stroke-width="1" fill="none" fill-rule="evenodd" sketch:type="MSPage">
        <g id="sentry-logo" sketch:type="MSLayerGroup" fill="#000000">
            <path d="M43.155,4.485 C41.516,1.635 39.012,0 36.288,0 C33.563,0 31.059,1.635 29.421,4.485 L20.768,19.521 C22.923,20.73 24.974,22.103 26.91,23.618 C37.244,31.708 44.207,43.929 45.316,57.787 L39.882,57.787 C38.812,45.933 32.911,35.462 24.174,28.371 C22.264,26.82 20.22,25.433 18.061,24.226 L7.923,41.843 C10.126,43.027 12.107,44.571 13.795,46.393 C13.796,46.395 13.798,46.397 13.802,46.4 C16.678,49.51 18.686,53.436 19.448,57.789 L10.367,57.784 C9.368,57.784 8.56,56.973 8.56,55.972 C8.56,55.659 8.64,55.365 8.778,55.107 L11.07,51.204 C9.382,49.381 7.402,47.838 5.198,46.653 L1.353,53.24 C-0.286,56.09 -0.446,59.082 0.916,61.449 C2.278,63.817 4.94,65.175 8.221,65.175 L26.941,65.175 C27.074,64.03 27.15,62.867 27.15,61.688 C27.15,60.366 27.056,59.067 26.889,57.79 C25.967,50.717 22.573,44.415 17.602,39.788 L20.436,34.864 C27.017,40.571 31.485,48.662 32.484,57.79 C32.625,59.071 32.704,60.371 32.704,61.688 C32.704,62.866 32.642,64.028 32.531,65.175 L52.724,65.175 C52.795,64.021 52.843,62.86 52.843,61.688 C52.843,60.376 52.782,59.08 52.693,57.79 C51.542,41.204 43.133,26.594 30.622,17.163 L34.74,10.008 C35.057,9.483 35.633,9.132 36.288,9.132 C36.962,9.131 37.55,9.502 37.86,10.05 L63.782,55.109 C63.922,55.367 64.001,55.661 64.001,55.974 C64.001,56.975 63.192,57.786 62.194,57.786 L58.126,57.791 C58.215,59.081 58.277,60.377 58.277,61.689 C58.277,62.861 58.228,64.022 58.156,65.176 L64.338,65.176 C67.62,65.176 70.282,63.819 71.643,61.45 C73.006,59.083 72.846,56.091 71.207,53.241 L43.155,4.485 L43.155,4.485 Z" id="Shape" sketch:type="MSShapeGroup"></path>
        </g>
    </g>
</svg>