<?xml version="1.0" encoding="UTF-8" standalone="no"?>
<svg
   xmlns:dc="http://purl.org/dc/elements/1.1/"
   xmlns:cc="http://creativecommons.org/ns#"
   xmlns:rdf="http://www.w3.org/1999/02/22-rdf-syntax-ns#"
   xmlns:svg="http://www.w3.org/2000/svg"
   xmlns="http://www.w3.org/2000/svg"
   viewBox="0 0 745.6875 159.5625"
   height="159.5625"
   width="745.6875"
   xml:space="preserve"
   version="1.1"
   id="svg2"><metadata
     id="metadata8"><rdf:RDF><cc:Work
         rdf:about=""><dc:format>image/svg+xml</dc:format><dc:type
           rdf:resource="http://purl.org/dc/dcmitype/StillImage" /></cc:Work></rdf:RDF></metadata><defs
     id="defs6"><clipPath
       id="clipPath18"
       clipPathUnits="userSpaceOnUse"><path
         id="path20"
         d="m 2986.9,1260.59 337.98,0 153.11,-492.301 2.38,0 154.24,492.301 322.71,0 -303.86,-822.043 -373.3,0 -293.26,822.043 z" /></clipPath><linearGradient
       id="linearGradient22"
       spreadMethod="pad"
       gradientTransform="matrix(-2.17e-5,496.275,496.275,2.17e-5,3472.11,436.826)"
       gradientUnits="userSpaceOnUse"
       y2="0"
       x2="1"
       y1="0"
       x1="0"><stop
         id="stop24"
         offset="0"
         style="stop-opacity:1;stop-color:#bfdf14" /><stop
         id="stop26"
         offset="1"
         style="stop-opacity:1;stop-color:#8cd024" /></linearGradient><clipPath
       id="clipPath34"
       clipPathUnits="userSpaceOnUse"><path
         id="path36"
         d="m 4248.14,438.551 -316.51,0 0,824.349 316.51,0 0,-824.349 z" /></clipPath><linearGradient
       id="linearGradient38"
       spreadMethod="pad"
       gradientTransform="matrix(-2.17e-5,496.275,496.275,2.17e-5,4089.88,436.826)"
       gradientUnits="userSpaceOnUse"
       y2="0"
       x2="1"
       y1="0"
       x1="0"><stop
         id="stop40"
         offset="0"
         style="stop-opacity:1;stop-color:#bfdf14" /><stop
         id="stop42"
         offset="1"
         style="stop-opacity:1;stop-color:#8cd024" /></linearGradient><clipPath
       id="clipPath50"
       clipPathUnits="userSpaceOnUse"><path
         id="path52"
         d="m 4262.41,1260.12 471.98,0 151.84,-579.128 2.38,0 0,579.128 270.69,0 0,-821.573 -463.77,0 -160.04,595.543 -2.36,0 0,-595.543 -270.72,0 0,821.573 z" /></clipPath><linearGradient
       id="linearGradient54"
       spreadMethod="pad"
       gradientTransform="matrix(-2.17e-5,496.275,496.275,2.17e-5,4710.86,436.826)"
       gradientUnits="userSpaceOnUse"
       y2="0"
       x2="1"
       y1="0"
       x1="0"><stop
         id="stop56"
         offset="0"
         style="stop-opacity:1;stop-color:#bfdf14" /><stop
         id="stop58"
         offset="1"
         style="stop-opacity:1;stop-color:#8cd024" /></linearGradient><clipPath
       id="clipPath66"
       clipPathUnits="userSpaceOnUse"><path
         id="path68"
         d="m 0,0 0,1276 5965,0 L 5965,0 0,0 Z" /></clipPath><clipPath
       id="clipPath72"
       clipPathUnits="userSpaceOnUse"><path
         id="path74"
         d="m 5441.74,759.75 c 6,-97.816 97.83,-120.395 209.2,-120.395 103.85,0 197.15,18.047 257.36,49.668 l 0,-203.199 c -100.82,-31.601 -221.23,-45.117 -353.73,-45.117 -317.46,0 -486.06,153.492 -486.06,424.387 0,263.366 168.6,395.856 486.06,395.856 304.02,0 410.93,-189.66 410.93,-454.528 l 0,-46.672 -523.76,0 z" /></clipPath><linearGradient
       id="linearGradient76"
       spreadMethod="pad"
       gradientTransform="matrix(-2.17e-5,496.275,496.275,2.17e-5,5517,436.826)"
       gradientUnits="userSpaceOnUse"
       y2="0"
       x2="1"
       y1="0"
       x1="0"><stop
         id="stop78"
         offset="0"
         style="stop-opacity:1;stop-color:#bfdf14" /><stop
         id="stop80"
         offset="1"
         style="stop-opacity:1;stop-color:#8cd024" /></linearGradient><clipPath
       id="clipPath92"
       clipPathUnits="userSpaceOnUse"><path
         id="path94"
         d="m 0,438.035 5965,0 0,837.965 -5965,0 0,-837.965 z" /></clipPath></defs><g
     transform="matrix(1.25,0,0,-1.25,0,159.5625)"
     id="g10"><g
       transform="scale(0.1,0.1)"
       id="g12"><g
         id="g14"><g
           clip-path="url(#clipPath18)"
           id="g16"><path
             id="path28"
             style="fill:url(#linearGradient22);fill-opacity:1;fill-rule:nonzero;stroke:none"
             d="m 2986.9,1260.59 337.98,0 153.11,-492.301 2.38,0 154.24,492.301 322.71,0 -303.86,-822.043 -373.3,0 -293.26,822.043" /></g></g><g
         id="g30"><g
           clip-path="url(#clipPath34)"
           id="g32"><path
             id="path44"
             style="fill:url(#linearGradient38);fill-opacity:1;fill-rule:nonzero;stroke:none"
             d="m 3931.63,438.551 316.512,0 0,824.348 -316.512,0 0,-824.348 z" /></g></g><g
         id="g46"><g
           clip-path="url(#clipPath50)"
           id="g48"><path
             id="path60"
             style="fill:url(#linearGradient54);fill-opacity:1;fill-rule:nonzero;stroke:none"
             d="m 4262.41,1260.12 471.98,0 151.84,-579.128 2.38,0 0,579.128 270.69,0 0,-821.573 -463.77,0 -160.04,595.543 -2.36,0 0,-595.543 -270.72,0 0,821.573" /></g></g><g
         id="g62"><g
           clip-path="url(#clipPath66)"
           id="g64"><g
             clip-path="url(#clipPath72)"
             id="g70"><path
               id="path82"
               style="fill:url(#linearGradient76);fill-opacity:1;fill-rule:nonzero;stroke:none"
               d="m 5545,440 0,1 -33,0 0,1 -21,0 0,1 -10,0 0,1 -10,0 0,1 -10,0 0,1 -10,0 0,1 -10,0 0,1 -6,0 0,1 -5,0 0,1 -6,0 0,1 -6,0 0,1 -6,0 0,1 -5,0 0,1 -6,0 0,1 -6,0 0,1 -5,0 0,1 -4,0 0,1 -4,0 0,1 -4,0 0,1 -3,0 0,1 -4,0 0,1 -4,0 0,1 -4,0 0,1 -4,0 0,1 -4,0 0,1 -3,0 0,1 -4,0 0,1 -4,0 0,1 -3,0 0,1 -3,0 0,1 -2,0 0,1 -3,0 0,1 -3,0 0,1 -3,0 0,1 -2,0 0,1 -3,0 0,1 -3,0 0,1 -3,0 0,1 -3,0 0,1 -2,0 0,1 -3,0 0,1 -3,0 0,1 -3,0 0,1 -2,0 0,1 -2,0 0,1 -2,0 0,1 -3,0 0,1 -2,0 0,1 -2,0 0,1 -2,0 0,1 -2,0 0,1 -2,0 0,1 -2,0 0,1 -2,0 0,1 -2,0 0,1 -2,0 0,1 -3,0 0,1 -2,0 0,1 -2,0 0,1 -2,0 0,1 -2,0 0,1 -2,0 0,1 -2,0 0,1 -2,0 0,1 -1,0 0,1 -2,0 0,1 -1,0 0,1 -2,0 0,1 -2,0 0,1 -1,0 0,1 -2,0 0,1 -2,0 0,1 -1,0 0,1 -2,0 0,1 -1,0 0,1 -2,0 0,1 -2,0 0,1 -1,0 0,1 -2,0 0,1 -2,0 0,1 -1,0 0,1 -2,0 0,1 -1,0 0,1 -2,0 0,1 -2,0 0,1 -1,0 0,1 -1,0 0,1 -2,0 0,1 -1,0 0,1 -1,0 0,1 -1,0 0,1 -2,0 0,1 -1,0 0,1 -1,0 0,1 -1,0 0,1 -2,0 0,1 -1,0 0,1 -1,0 0,1 -2,0 0,1 -1,0 0,1 -1,0 0,1 -1,0 0,1 -2,0 0,1 -1,0 0,1 -1,0 0,1 -1,0 0,1 -2,0 0,1 -1,0 0,1 -1,0 0,1 -2,0 0,1 -1,0 0,1 -1,0 0,1 -1,0 0,1 -1,0 0,1 -1,0 0,1 -1,0 0,1 -1,0 0,1 -1,0 0,1 -1,0 0,1 -1,0 0,1 -1,0 0,1 -1,0 0,1 -1,0 0,1 -1,0 0,1 -1,0 0,1 -1,0 0,1 -1,0 0,1 -1,0 0,1 -1,0 0,1 -1,0 0,1 -1,0 0,1 -1,0 0,1 -1,0 0,1 -1,0 0,1 -1,0 0,1 -1,0 0,1 -1,0 0,1 -1,0 0,1 -1,0 0,1 -1,0 0,2 -1,0 0,1 -1,0 0,1 -1,0 0,1 -1,0 0,2 -1,0 0,1 -1,0 0,1 -1,0 0,1 -1,0 0,2 -1,0 0,1 -1,0 0,1 -1,0 0,2 -1,0 0,1 -1,0 0,1 -1,0 0,1 -1,0 0,2 -1,0 0,1 -1,0 0,1 -1,0 0,1 -1,0 0,2 -1,0 0,1 -1,0 0,1 -1,0 0,2 -1,0 0,1 -1,0 0,1 -1,0 0,2 -1,0 0,2 -1,0 0,1 -1,0 0,2 -1,0 0,1 -1,0 0,2 -1,0 0,2 -1,0 0,1 -1,0 0,2 -1,0 0,2 -1,0 0,1 -1,0 0,2 -1,0 0,2 -1,0 0,1 -1,0 0,2 -1,0 0,1 -1,0 0,2 -1,0 0,2 -1,0 0,1 -1,0 0,2 -1,0 0,2 -1,0 0,2 -1,0 0,2 -1,0 0,2 -1,0 0,2 -1,0 0,3 -1,0 0,2 -1,0 0,2 -1,0 0,2 -1,0 0,2 -1,0 0,2 -1,0 0,3 -1,0 0,2 -1,0 0,2 -1,0 0,2 -1,0 0,2 -1,0 0,2 -1,0 0,3 -1,0 0,2 -1,0 0,3 -1,0 0,3 -1,0 0,3 -1,0 0,3 -1,0 0,3 -1,0 0,3 -1,0 0,3 -1,0 0,3 -1,0 0,3 -1,0 0,3 -1,0 0,3 -1,0 0,3 -1,0 0,4 -1,0 0,4 -1,0 0,5 -1,0 0,4 -1,0 0,4 -1,0 0,5 -1,0 0,4 -1,0 0,5 -1,0 0,4 -1,0 0,5 -1,0 0,6 -1,0 0,7 -1,0 0,8 -1,0 0,8 -1,0 0,8 -1,0 0,8 -1,0 0,16 -1,0 0,25 -1,0 0,25 1,0 0,25 1,0 0,15 1,0 0,8 1,0 0,8 1,0 0,7 1,0 0,8 1,0 0,7 1,0 0,6 1,0 0,4 1,0 0,4 1,0 0,5 1,0 0,4 1,0 0,4 1,0 0,4 1,0 0,5 1,0 0,4 1,0 0,4 1,0 0,3 1,0 0,3 1,0 0,3 1,0 0,3 1,0 0,3 1,0 0,2 1,0 0,3 1,0 0,3 1,0 0,3 1,0 0,3 1,0 0,3 1,0 0,2 1,0 0,3 1,0 0,3 1,0 0,2 1,0 0,2 1,0 0,2 1,0 0,2 1,0 0,2 1,0 0,2 1,0 0,2 1,0 0,2 1,0 0,2 1,0 0,2 1,0 0,2 1,0 0,2 1,0 0,2 1,0 0,2 1,0 0,2 1,0 0,2 1,0 0,2 1,0 0,2 1,0 0,2 1,0 0,1 1,0 0,2 1,0 0,1 1,0 0,2 1,0 0,1 1,0 0,2 1,0 0,1 1,0 0,2 1,0 0,1 1,0 0,2 1,0 0,1 1,0 0,2 1,0 0,2 1,0 0,1 1,0 0,2 1,0 0,1 1,0 0,2 1,0 0,1 1,0 0,2 1,0 0,1 1,0 0,1 1,0 0,1 1,0 0,2 1,0 0,1 1,0 0,1 1,0 0,1 1,0 0,1 1,0 0,1 1,0 0,2 1,0 0,1 1,0 0,1 1,0 0,1 1,0 0,1 1,0 0,1 1,0 0,2 1,0 0,1 1,0 0,1 1,0 0,1 1,0 0,1 1,0 0,1 1,0 0,2 1,0 0,1 1,0 0,1 1,0 0,1 1,0 0,1 1,0 0,1 1,0 0,1 1,0 0,1 1,0 0,1 1,0 0,1 1,0 0,1 1,0 0,1 1,0 0,1 2,0 0,1 1,0 0,1 1,0 0,1 1,0 0,1 1,0 0,1 1,0 0,1 1,0 0,1 1,0 0,1 1,0 0,1 1,0 0,1 1,0 0,1 2,0 0,1 1,0 0,1 1,0 0,1 1,0 0,1 1,0 0,1 1,0 0,1 1,0 0,1 1,0 0,1 2,0 0,1 1,0 0,1 2,0 0,1 1,0 0,1 1,0 0,1 2,0 0,1 1,0 0,1 2,0 0,1 1,0 0,1 1,0 0,1 2,0 0,1 1,0 0,1 2,0 0,1 1,0 0,1 1,0 0,1 2,0 0,1 1,0 0,1 2,0 0,1 1,0 0,1 1,0 0,1 2,0 0,1 1,0 0,1 2,0 0,1 1,0 0,1 2,0 0,1 2,0 0,1 2,0 0,1 2,0 0,1 1,0 0,1 2,0 0,1 2,0 0,1 2,0 0,1 2,0 0,1 1,0 0,1 2,0 0,1 2,0 0,1 2,0 0,1 2,0 0,1 1,0 0,1 2,0 0,1 2,0 0,1 2,0 0,1 2,0 0,1 2,0 0,1 2,0 0,1 2,0 0,1 3,0 0,1 2,0 0,1 2,0 0,1 3,0 0,1 2,0 0,1 3,0 0,1 2,0 0,1 2,0 0,1 3,0 0,1 2,0 0,1 2,0 0,1 3,0 0,1 2,0 0,1 2,0 0,1 3,0 0,1 3,0 0,1 3,0 0,1 4,0 0,1 3,0 0,1 3,0 0,1 3,0 0,1 3,0 0,1 3,0 0,1 3,0 0,1 3,0 0,1 4,0 0,1 3,0 0,1 3,0 0,1 4,0 0,1 4,0 0,1 5,0 0,1 4,0 0,1 4,0 0,1 5,0 0,1 4,0 0,1 4,0 0,1 5,0 0,1 4,0 0,1 4,0 0,1 7,0 0,1 6,0 0,1 7,0 0,1 7,0 0,1 6,0 0,1 7,0 0,1 6,0 0,1 8,0 0,1 12,0 0,1 11,0 0,1 12,0 0,1 12,0 0,1 27,0 0,1 71,0 0,-1 16,0 0,-1 11,0 0,-1 9,0 0,-1 10,0 0,-1 6,0 0,-1 7,0 0,-1 6,0 0,-1 6,0 0,-1 5,0 0,-1 5,0 0,-1 5,0 0,-1 5,0 0,-1 4,0 0,-1 4,0 0,-1 4,0 0,-1 4,0 0,-1 4,0 0,-1 4,0 0,-1 3,0 0,-1 3,0 0,-1 3,0 0,-1 4,0 0,-1 3,0 0,-1 3,0 0,-1 3,0 0,-1 3,0 0,-1 2,0 0,-1 3,0 0,-1 3,0 0,-1 2,0 0,-1 3,0 0,-1 2,0 0,-1 3,0 0,-1 2,0 0,-1 2,0 0,-1 3,0 0,-1 2,0 0,-1 2,0 0,-1 2,0 0,-1 2,0 0,-1 3,0 0,-1 2,0 0,-1 2,0 0,-1 2,0 0,-1 1,0 0,-1 2,0 0,-1 2,0 0,-1 2,0 0,-1 2,0 0,-1 2,0 0,-1 2,0 0,-1 2,0 0,-1 1,0 0,-1 2,0 0,-1 1,0 0,-1 2,0 0,-1 2,0 0,-1 1,0 0,-1 2,0 0,-1 2,0 0,-1 1,0 0,-1 2,0 0,-1 1,0 0,-1 2,0 0,-1 1,0 0,-1 2,0 0,-1 1,0 0,-1 1,0 0,-1 2,0 0,-1 1,0 0,-1 2,0 0,-1 1,0 0,-1 2,0 0,-1 1,0 0,-1 1,0 0,-1 1,0 0,-1 2,0 0,-1 1,0 0,-1 1,0 0,-1 1,0 0,-1 2,0 0,-1 1,0 0,-1 1,0 0,-1 1,0 0,-1 2,0 0,-1 1,0 0,-1 1,0 0,-1 1,0 0,-1 1,0 0,-1 1,0 0,-1 1,0 0,-1 1,0 0,-1 2,0 0,-1 1,0 0,-1 1,0 0,-1 1,0 0,-1 1,0 0,-1 1,0 0,-1 1,0 0,-1 1,0 0,-1 1,0 0,-1 1,0 0,-1 1,0 0,-1 1,0 0,-1 1,0 0,-1 1,0 0,-1 1,0 0,-1 1,0 0,-1 1,0 0,-1 1,0 0,-1 1,0 0,-1 1,0 0,-1 1,0 0,-2 1,0 0,-1 1,0 0,-1 1,0 0,-1 1,0 0,-1 1,0 0,-1 1,0 0,-2 1,0 0,-1 1,0 0,-1 1,0 0,-1 1,0 0,-1 1,0 0,-1 1,0 0,-2 1,0 0,-1 1,0 0,-1 1,0 0,-2 1,0 0,-1 1,0 0,-1 1,0 0,-2 1,0 0,-1 1,0 0,-1 1,0 0,-2 1,0 0,-1 1,0 0,-1 1,0 0,-2 1,0 0,-1 1,0 0,-2 1,0 0,-1 1,0 0,-2 1,0 0,-1 1,0 0,-2 1,0 0,-1 1,0 0,-2 1,0 0,-1 1,0 0,-2 1,0 0,-2 1,0 0,-1 1,0 0,-2 1,0 0,-2 1,0 0,-1 1,0 0,-2 1,0 0,-2 1,0 0,-2 1,0 0,-1 1,0 0,-2 1,0 0,-2 1,0 0,-2 1,0 0,-2 1,0 0,-2 1,0 0,-2 1,0 0,-2 1,0 0,-2 1,0 0,-2 1,0 0,-2 1,0 0,-2 1,0 0,-2 1,0 0,-2 1,0 0,-3 1,0 0,-2 1,0 0,-2 1,0 0,-2 1,0 0,-2 1,0 0,-3 1,0 0,-2 1,0 0,-3 1,0 0,-3 1,0 0,-2 1,0 0,-3 1,0 0,-2 1,0 0,-3 1,0 0,-3 1,0 0,-3 1,0 0,-3 1,0 0,-3 1,0 0,-3 1,0 0,-3 1,0 0,-3 1,0 0,-3 1,0 0,-4 1,0 0,-3 1,0 0,-4 1,0 0,-3 1,0 0,-4 1,0 0,-4 1,0 0,-4 1,0 0,-4 1,0 0,-4 1,0 0,-5 1,0 0,-5 1,0 0,-5 1,0 0,-5 1,0 0,-5 1,0 0,-6 1,0 0,-6 1,0 0,-6 1,0 0,-7 1,0 0,-8 1,0 0,-7 1,0 0,-9 1,0 0,-11 1,0 0,-11 1,0 0,-15 1,0 0,-100 -523,0 0,-1 1,0 0,-8 1,0 0,-8 1,0 0,-4 1,0 0,-4 1,0 0,-4 1,0 0,-3 1,0 0,-3 1,0 0,-2 1,0 0,-3 1,0 0,-2 1,0 0,-2 1,0 0,-3 1,0 0,-1 1,0 0,-2 1,0 0,-2 1,0 0,-1 1,0 0,-2 1,0 0,-2 1,0 0,-1 1,0 0,-2 1,0 0,-1 1,0 0,-1 1,0 0,-1 1,0 0,-2 1,0 0,-1 1,0 0,-1 1,0 0,-1 1,0 0,-1 1,0 0,-1 1,0 0,-1 1,0 0,-1 1,0 0,-1 1,0 0,-1 1,0 0,-1 1,0 0,-1 1,0 0,-1 1,0 0,-1 1,0 0,-1 1,0 0,-1 2,0 0,-1 1,0 0,-1 2,0 0,-1 1,0 0,-1 1,0 0,-1 2,0 0,-1 1,0 0,-1 2,0 0,-1 1,0 0,-1 2,0 0,-1 2,0 0,-1 2,0 0,-1 2,0 0,-1 1,0 0,-1 2,0 0,-1 2,0 0,-1 2,0 0,-1 3,0 0,-1 2,0 0,-1 3,0 0,-1 2,0 0,-1 2,0 0,-1 3,0 0,-1 3,0 0,-1 4,0 0,-1 3,0 0,-1 3,0 0,-1 4,0 0,-1 4,0 0,-1 4,0 0,-1 4,0 0,-1 5,0 0,-1 6,0 0,-1 5,0 0,-1 7,0 0,-1 8,0 0,-1 8,0 0,-1 13,0 0,-1 17,0 0,-1 58,0 0,1 21,0 0,1 15,0 0,1 13,0 0,1 9,0 0,1 8,0 0,1 9,0 0,1 8,0 0,1 6,0 0,1 6,0 0,1 6,0 0,1 6,0 0,1 7,0 0,1 5,0 0,1 4,0 0,1 4,0 0,1 5,0 0,1 4,0 0,1 5,0 0,1 4,0 0,1 4,0 0,1 4,0 0,1 3,0 0,1 4,0 0,1 3,0 0,1 4,0 0,1 3,0 0,1 4,0 0,1 3,0 0,1 3,0 0,1 2,0 0,1 3,0 0,1 3,0 0,1 3,0 0,1 2,0 0,1 3,0 0,1 3,0 0,1 3,0 0,1 2,0 0,1 2,0 0,1 2,0 0,1 3,0 0,1 2,0 0,1 2,0 0,1 2,0 0,1 2,0 0,1 2,0 0,1 2,0 0,1 3,0 0,1 2,0 0,1 1,0 0,-205 -3,0 0,-1 -4,0 0,-1 -3,0 0,-1 -4,0 0,-1 -3,0 0,-1 -4,0 0,-1 -3,0 0,-1 -4,0 0,-1 -3,0 0,-1 -4,0 0,-1 -3,0 0,-1 -4,0 0,-1 -5,0 0,-1 -4,0 0,-1 -4,0 0,-1 -5,0 0,-1 -4,0 0,-1 -4,0 0,-1 -5,0 0,-1 -4,0 0,-1 -5,0 0,-1 -5,0 0,-1 -6,0 0,-1 -5,0 0,-1 -5,0 0,-1 -6,0 0,-1 -5,0 0,-1 -6,0 0,-1 -6,0 0,-1 -7,0 0,-1 -7,0 0,-1 -7,0 0,-1 -7,0 0,-1 -7,0 0,-1 -8,0 0,-1 -10,0 0,-1 -9,0 0,-1 -10,0 0,-1 -9,0 0,-1 -12,0 0,-1 -14,0 0,-1 -14,0 0,-1 -18,0 0,-1 -24,0 0,-1 -43,0 0,-1" /></g></g></g><path
         id="path84"
         style="fill:#ffffff;fill-opacity:1;fill-rule:nonzero;stroke:none"
         d="m 5442.58,886.797 c 0,0 76.6,-42.633 159.2,19.762 131.1,98.981 136.67,228.981 136.67,228.981 0,0 -62.43,-48.68 -123.88,-42.02 -104.2,11.16 -190.94,-66.57 -202.12,-114.079 -11.8,-50.253 23.57,-72.578 23.57,-72.578 0,0 22.94,80.332 70.29,101.087 47.31,20.67 158.42,56.28 158.42,56.28 0,0 -70.77,-29.62 -122.54,-51.03 -44.06,-18.2 -77.59,-51.708 -85.27,-86.731 -7.7,-35.004 -14.34,-39.672 -14.34,-39.672" /><path
         id="path86"
         style="fill:#ffffff;fill-opacity:1;fill-rule:nonzero;stroke:none"
         d="m 5467.29,750.316 c 0,0 -54.95,25.715 -58.85,68.336 -3.84,42.536 32.3,89.168 32.3,89.168 l 9.47,-18.957 c 0,0 -31.26,-19.215 -26.58,-66.418 3.83,-37.937 47.46,-56.961 81.57,-75.918 17.67,-9.804 -37.91,3.789 -37.91,3.789" /><g
         id="g88"><g
           clip-path="url(#clipPath92)"
           id="g90"><path
             id="path96"
             style="fill:#ffffff;fill-opacity:1;fill-rule:nonzero;stroke:none"
             d="m 5417.1,810.992 c 0,0 -7.37,63.399 -42.71,73.703 -35.4,10.325 -75.23,-14.738 -73.71,-38.308 1.47,-23.575 29.46,-44.242 47.17,-20.657 24.78,33.063 -2.99,33.899 -10.29,25.086 -7.42,-8.863 7.37,2.946 8.85,-5.91 1.44,-8.847 -4.1,-23.922 -20.69,-22.094 -13.24,1.446 -19.14,8.813 -17.66,25.032 1.47,16.238 32.37,42.722 60.4,29.48 28.02,-13.242 36.47,-46.676 40.39,-58.672 3.83,-12.093 8.25,-7.66 8.25,-7.66" /><path
             id="path98"
             style="fill:#231f20;fill-opacity:1;fill-rule:nonzero;stroke:none"
             d="m 681.195,1037.45 c -69.304,24.25 -151.277,40.45 -239.082,40.45 -48.496,0 -132.797,-1.17 -132.797,-53.17 0,-105.074 423.836,-5.74 423.836,-316.429 0,-216.039 -213.636,-270.258 -392.664,-270.258 -118.98,0 -217.121,11.547 -332.61691,38.098 l 0,209.05 C 91.0273,650.555 192.633,632.086 285.062,632.086 c 72.754,0 138.575,14.969 138.575,55.418 0,108.59 -423.85575,10.406 -423.85575,323.396 0,221.74 230.98875,261.02 414.62875,261.02 86.61,0 182.485,-10.38 266.785,-27.73 l 0,-206.74" /></g></g><path
         id="path100"
         style="fill:#231f20;fill-opacity:1;fill-rule:nonzero;stroke:none"
         d="m 1035.34,783.145 c 0,-76.211 21.9,-133.907 95.77,-133.907 80.81,0 98.12,54.254 98.12,132.739 l 0,478.913 302.33,0 0,-473.152 c 0,-260.847 -160.39,-346.215 -403.9,-346.215 -225.043,0 -401.621,92.332 -401.621,330.036 l 0,489.331 309.301,0 0,-477.745" /><path
         id="path102"
         style="fill:#231f20;fill-opacity:1;fill-rule:nonzero;stroke:none"
         d="m 1546.99,1258.31 458.16,0 c 176.7,0 285.68,-61.02 285.68,-218.22 0,-125.485 -70.87,-188.844 -176.7,-217.02 l 0,-2.332 c 61.38,-11.73 98.4,-44.55 124.85,-88 43.38,-86.754 40.23,-213.465 69.83,-293.258 l -761.82,0 0,818.83" /><path
         id="path104"
         style="fill:#ffffff;fill-opacity:1;fill-rule:nonzero;stroke:none"
         d="m 1999.34,976.465 c 0,-64.754 -52.53,-117.324 -117.3,-117.324 -64.75,0 -117.27,52.57 -117.27,117.324 0,64.795 52.52,117.305 117.27,117.305 64.77,0 117.3,-52.51 117.3,-117.305" /><path
         id="path106"
         style="fill:#ffffff;fill-opacity:1;fill-rule:nonzero;stroke:none"
         d="m 1844.01,923.16 c 0,0 -81.26,-359.414 -81.26,-388.199 0,-28.871 2.45,-50.828 123.13,-50.828 115.79,0 115.48,24.64 115.48,50.015 0,25.301 -85.13,389.012 -85.13,389.012 l -72.22,0" /><path
         id="path108"
         style="fill:#231f20;fill-opacity:1;fill-rule:nonzero;stroke:none"
         d="m 2838,939.906 c 0,60.344 -9.03,155.434 -95.06,155.434 -87.55,0 -107.15,-93.58 -102.64,-155.434 l 197.7,0 z M 2641.82,773.867 c 6.05,-98.07 98.09,-120.707 209.79,-120.707 104.11,0 197.73,18.051 258.06,49.75 l 0,-203.73 c -101.12,-31.715 -221.83,-45.274 -354.65,-45.274 -318.46,0 -487.52,153.946 -487.52,425.614 0,264.13 169.06,396.93 487.52,396.93 304.84,0 411.99,-190.19 411.99,-455.774 l 0,-46.809 -525.19,0" /><path
         id="path110"
         style="fill:#231f20;fill-opacity:1;fill-rule:nonzero;stroke:none"
         d="m 23.2422,35.3711 c 14.3594,-9.1016 31.168,-14.3516 53.9297,-14.3516 30.1171,0 54.9801,15.4102 54.9801,50.0703 0,47.9802 -112.0582,53.9302 -112.0582,118.0192 0,39.219 34.3164,63.731 77.3906,63.731 11.9066,0 31.1676,-1.75 47.9766,-8.051 l -3.856,-22.07 c -10.851,5.961 -28.011,9.109 -44.4722,9.109 -25.2148,0 -52.8789,-10.5 -52.8789,-42.027 0,-49.02 112.0581,-49.371 112.0581,-120.8127 C 156.312,19.6211 113.941,0 76.1211,0 52.3086,0 33.75,4.89844 20.7891,10.5117 l 2.4531,24.8594" /><path
         id="path112"
         style="fill:#231f20;fill-opacity:1;fill-rule:nonzero;stroke:none"
         d="m 222.184,248.641 119.765,0 0,-21.012 -95.605,0 0,-87.199 90.703,0 0,-21.02 -90.703,0 0,-94.1991 99.804,0 0,-20.99996 -123.964,0 0,244.43006" /><path
         id="path114"
         style="fill:#231f20;fill-opacity:1;fill-rule:nonzero;stroke:none"
         d="m 582.559,221.328 c -15.411,8.043 -37.469,10.5 -54.629,10.5 -63.383,0 -99.102,-44.828 -99.102,-105.398 0,-61.6488 34.668,-105.4105 99.102,-105.4105 16.109,0 40.621,2.1016 54.629,10.5 l 1.402,-21.0078 C 570.652,2.44922 543.34,0 527.93,0 450.891,0 404.664,50.7812 404.664,126.43 c 0,74.23 47.625,126.41 123.266,126.41 14.355,0 43.422,-2.449 56.031,-9.102 l -1.402,-22.41" /><path
         id="path116"
         style="fill:#231f20;fill-opacity:1;fill-rule:nonzero;stroke:none"
         d="M 841.387,89.6484 C 841.387,17.5117 788.508,0 752.789,0 717.07,0 664.188,17.5117 664.188,89.6484 l 0,158.9926 24.167,0 0,-158.9926 c 0,-39.9179 22.059,-68.6289 64.434,-68.6289 42.371,0 64.434,28.711 64.434,68.6289 l 0,158.9926 24.164,0 0,-158.9926" /><path
         id="path118"
         style="fill:#231f20;fill-opacity:1;fill-rule:nonzero;stroke:none"
         d="m 941.93,140.43 25.558,0 c 28.371,0 60.932,10.859 60.932,44.82 0,39.93 -28.36,42.379 -61.627,42.379 l -24.863,0 0,-87.199 z m -24.164,108.211 63.035,0 c 43.419,0 71.789,-18.563 71.789,-63.391 0,-31.512 -24.17,-52.531 -54.278,-56.371 l 0,-0.707 c 19.608,-2.453 23.808,-12.961 31.508,-29.4103 l 41.68,-94.55076 -26.62,0 -35.36,82.64846 C 995.508,118.371 985,119.41 961.891,119.41 l -19.961,0 0,-115.19906 -24.164,0 0,244.43006" /><path
         id="path120"
         style="fill:#231f20;fill-opacity:1;fill-rule:nonzero;stroke:none"
         d="m 1128.96,248.641 119.77,0 0,-21.012 -95.6,0 0,-87.199 90.7,0 0,-21.02 -90.7,0 0,-94.1991 99.8,0 0,-20.99996 -123.97,0 0,244.43006" /><path
         id="path122"
         style="fill:#8cd024;fill-opacity:1;fill-rule:nonzero;stroke:none"
         d="m 1430.53,35.3711 c 14.36,-9.1016 31.16,-14.3516 53.93,-14.3516 30.12,0 54.98,15.4102 54.98,50.0703 0,47.9802 -112.06,53.9302 -112.06,118.0192 0,39.219 34.31,63.731 77.39,63.731 11.9,0 31.17,-1.75 47.97,-8.051 l -3.85,-22.07 c -10.85,5.961 -28.01,9.109 -44.47,9.109 -25.22,0 -52.88,-10.5 -52.88,-42.027 0,-49.02 112.06,-49.371 112.06,-120.8127 C 1563.6,19.6211 1521.23,0 1483.41,0 c -23.82,0 -42.37,4.89844 -55.33,10.5117 l 2.45,24.8594" /><path
         id="path124"
         style="fill:#8cd024;fill-opacity:1;fill-rule:nonzero;stroke:none"
         d="m 1642.42,126.43 c 0,-51.8402 25.92,-105.4105 83.35,-105.4105 57.43,0 83.35,53.5703 83.35,105.4105 0,51.82 -25.92,105.398 -83.35,105.398 -57.43,0 -83.35,-53.578 -83.35,-105.398 z m 83.35,126.41 c 73.54,0 108.21,-60.231 107.51,-126.41 C 1832.58,51.4805 1796.16,0 1725.77,0 c -70.39,0 -106.81,51.4805 -107.51,126.43 -0.7,66.179 33.97,126.41 107.51,126.41" /><path
         id="path126"
         style="fill:#8cd024;fill-opacity:1;fill-rule:nonzero;stroke:none"
         d="m 2067.59,221.328 c -15.41,8.043 -37.47,10.5 -54.63,10.5 -63.38,0 -99.1,-44.828 -99.1,-105.398 0,-61.6488 34.67,-105.4105 99.1,-105.4105 16.11,0 40.62,2.1016 54.63,10.5 l 1.4,-21.0078 C 2055.69,2.44922 2028.37,0 2012.96,0 1935.92,0 1889.7,50.7812 1889.7,126.43 c 0,74.23 47.62,126.41 123.26,126.41 14.36,0 43.43,-2.449 56.03,-9.102 l -1.4,-22.41" /><path
         id="path128"
         style="fill:#8cd024;fill-opacity:1;fill-rule:nonzero;stroke:none"
         d="m 2147.82,4.21094 24.168,0 0,244.43 -24.168,0 0,-244.43 z" /><path
         id="path130"
         style="fill:#8cd024;fill-opacity:1;fill-rule:nonzero;stroke:none"
         d="m 2332.73,225.531 -53.22,-134.8318 106.11,0 -52.89,134.8318 z m -11.9,23.11 27.31,0 97.01,-244.43006 -25.22,0 -26.26,65.48046 -123.27,0 -26.26,-65.48046 -23.47,0 100.16,244.43006" /><path
         id="path132"
         style="fill:#8cd024;fill-opacity:1;fill-rule:nonzero;stroke:none"
         d="m 2495.26,248.641 24.16,0 0,-223.4301 98.06,0 0,-20.99996 -122.22,0 0,244.43006" /><path
         id="path134"
         style="fill:#231f20;fill-opacity:1;fill-rule:nonzero;stroke:none"
         d="m 2778.6,35.3711 c 14.36,-9.1016 31.17,-14.3516 53.93,-14.3516 30.12,0 54.98,15.4102 54.98,50.0703 0,47.9802 -112.06,53.9302 -112.06,118.0192 0,39.219 34.32,63.731 77.39,63.731 11.91,0 31.17,-1.75 47.98,-8.051 l -3.86,-22.07 c -10.85,5.961 -28,9.109 -44.47,9.109 -25.21,0 -52.88,-10.5 -52.88,-42.027 0,-49.02 112.06,-49.371 112.06,-120.8127 C 2911.67,19.6211 2869.3,0 2831.48,0 c -23.81,0 -42.37,4.89844 -55.33,10.5117 l 2.45,24.8594" /><path
         id="path136"
         style="fill:#231f20;fill-opacity:1;fill-rule:nonzero;stroke:none"
         d="m 2990.85,126.43 c 0,-51.8402 25.92,-105.4105 83.34,-105.4105 57.43,0 83.35,53.5703 83.35,105.4105 0,51.82 -25.92,105.398 -83.35,105.398 -57.42,0 -83.34,-53.578 -83.34,-105.398 z m 83.34,126.41 c 73.54,0 108.21,-60.231 107.51,-126.41 C 3181.01,51.4805 3144.58,0 3074.19,0 c -70.38,0 -106.81,51.4805 -107.5,126.43 -0.7,66.179 33.96,126.41 107.5,126.41" /><path
         id="path138"
         style="fill:#231f20;fill-opacity:1;fill-rule:nonzero;stroke:none"
         d="m 3245.12,248.641 116.27,0 0,-21.012 -92.1,0 0,-87.199 87.89,0 0,-21.02 -87.89,0 0,-115.19906 -24.17,0 0,244.43006" /><path
         id="path140"
         style="fill:#231f20;fill-opacity:1;fill-rule:nonzero;stroke:none"
         d="m 3466.82,227.629 -72.14,0 0,21.012 168.44,0 0,-21.012 -72.14,0 0,-223.41806 -24.16,0 0,223.41806" /><path
         id="path142"
         style="fill:#231f20;fill-opacity:1;fill-rule:nonzero;stroke:none"
         d="m 3840.15,4.21094 -28.71,0 -61.99,217.11706 -0.7,0 -63.04,-217.11706 -29.06,0 -70.04,244.43006 24.86,0 60.24,-217.1215 0.7,0 62.68,217.1215 29.07,0 61.63,-217.1215 0.7,0 61.28,217.1215 23.12,0 -70.74,-244.43006" /><path
         id="path144"
         style="fill:#231f20;fill-opacity:1;fill-rule:nonzero;stroke:none"
         d="m 4033.15,225.531 -53.23,-134.8318 106.12,0 -52.89,134.8318 z m -11.9,23.11 27.31,0 97.01,-244.43006 -25.22,0 -26.27,65.48046 -123.26,0 -26.26,-65.48046 -23.47,0 100.16,244.43006" /><path
         id="path146"
         style="fill:#231f20;fill-opacity:1;fill-rule:nonzero;stroke:none"
         d="m 4222.65,140.43 25.55,0 c 28.37,0 60.94,10.859 60.94,44.82 0,39.93 -28.37,42.379 -61.63,42.379 l -24.86,0 0,-87.199 z m -24.17,108.211 63.03,0 c 43.43,0 71.79,-18.563 71.79,-63.391 0,-31.512 -24.16,-52.531 -54.28,-56.371 l 0,-0.707 c 19.61,-2.453 23.81,-12.961 31.52,-29.4103 l 41.68,-94.55076 -26.62,0 -35.37,82.64846 c -14.01,31.5116 -24.52,32.5506 -47.62,32.5506 l -19.96,0 0,-115.19906 -24.17,0 0,244.43006" /><path
         id="path148"
         style="fill:#231f20;fill-opacity:1;fill-rule:nonzero;stroke:none"
         d="m 4410.03,248.641 119.76,0 0,-21.012 -95.6,0 0,-87.199 90.7,0 0,-21.02 -90.7,0 0,-94.1991 99.8,0 0,-20.99996 -123.96,0 0,244.43006" /></g></g></svg>