<?xml version="1.0" encoding="UTF-8" standalone="no"?>
<!-- Created with Inkscape (http://www.inkscape.org/) -->

<svg
   xmlns:dc="http://purl.org/dc/elements/1.1/"
   xmlns:cc="http://creativecommons.org/ns#"
   xmlns:rdf="http://www.w3.org/1999/02/22-rdf-syntax-ns#"
   xmlns:svg="http://www.w3.org/2000/svg"
   xmlns="http://www.w3.org/2000/svg"
   xmlns:sodipodi="http://sodipodi.sourceforge.net/DTD/sodipodi-0.dtd"
   xmlns:inkscape="http://www.inkscape.org/namespaces/inkscape"
   id="svg2"
   version="1.1"
   inkscape:version="0.48.2 r9819"
   width="104"
   height="104"
   xml:space="preserve"
   sodipodi:docname="tessel-logo.svg"><metadata
     id="metadata8"><rdf:RDF><cc:Work
         rdf:about=""><dc:format>image/svg+xml</dc:format><dc:type
           rdf:resource="http://purl.org/dc/dcmitype/StillImage" /><dc:title /></cc:Work></rdf:RDF></metadata><defs
     id="defs6"><clipPath
       clipPathUnits="userSpaceOnUse"
       id="clipPath16"><path
         d="M 0.001,0 104,0 l 0,103.999 -103.999,0 L 0.001,0 z"
         id="path18"
         inkscape:connector-curvature="0" /></clipPath><clipPath
       clipPathUnits="userSpaceOnUse"
       id="clipPath44"><path
         d="M 0.001,0 104,0 l 0,103.999 -103.999,0 L 0.001,0 z"
         id="path46"
         inkscape:connector-curvature="0" /></clipPath></defs><sodipodi:namedview
     pagecolor="#ffffff"
     bordercolor="#666666"
     borderopacity="1"
     objecttolerance="10"
     gridtolerance="10"
     guidetolerance="10"
     inkscape:pageopacity="0"
     inkscape:pageshadow="2"
     inkscape:window-width="1920"
     inkscape:window-height="1017"
     id="namedview4"
     showgrid="false"
     inkscape:zoom="5.1346831"
     inkscape:cx="30.219219"
     inkscape:cy="61.757303"
     inkscape:window-x="-8"
     inkscape:window-y="-8"
     inkscape:window-maximized="1"
     inkscape:current-layer="g10"
     borderlayer="true" /><g
     id="g10"
     inkscape:groupmode="layer"
     inkscape:label="tessel-logo"
     transform="matrix(1.25,0,0,-1.25,0,104)"><g
       id="g3162"
       inkscape:export-filename="C:\Users\Eric\Dropbox\Script Stick\Logos\tessel\T.png"
       inkscape:export-xdpi="90"
       inkscape:export-ydpi="90"
       transform="translate(1.6,1.6000202)"><rect
         transform="scale(1,-1)"
         y="-80"
         x="0"
         height="80"
         width="80"
         id="rect3075"
         style="fill:#ffffff;fill-opacity:1;stroke:none" /><g
         id="g3106"
         transform="matrix(0.90495874,0,0,0.90495874,1516.1316,1675.1362)"><g
           transform="matrix(0.89826377,0,0,0.89826377,-1677.65,-1854.3132)"
           id="g3108"><g
             id="g3110"><g
               id="g3112"
               clip-path="url(#clipPath16)"><g
                 id="g3114"
                 transform="translate(87.6109,28.0849)"><path
                   inkscape:connector-curvature="0"
                   d="M 0,0 C 0,1.945 1.575,3.523 3.522,3.523 5.47,3.523 7.045,1.945 7.045,0 7.045,-1.944 5.47,-3.522 3.522,-3.522 1.575,-3.522 0,-1.944 0,0 z"
                   style="fill:none;stroke:#f54a42;stroke-width:3.75;stroke-linecap:round;stroke-linejoin:miter;stroke-miterlimit:10;stroke-opacity:1;stroke-dasharray:none"
                   id="path3116" /></g><g
                 id="g3118"
                 transform="translate(9.3452,28.0849)"><path
                   inkscape:connector-curvature="0"
                   d="M 0,0 C 0,1.945 1.576,3.523 3.522,3.523 5.469,3.523 7.045,1.945 7.045,0 7.045,-1.944 5.469,-3.522 3.522,-3.522 1.576,-3.522 0,-1.944 0,0 z"
                   style="fill:none;stroke:#f54a42;stroke-width:3.75;stroke-linecap:round;stroke-linejoin:miter;stroke-miterlimit:10;stroke-opacity:1;stroke-dasharray:none"
                   id="path3120" /></g><g
                 id="g3122"
                 transform="translate(48.4766,96.6347)"><path
                   inkscape:connector-curvature="0"
                   d="M 0,0 C 0,1.945 1.577,3.522 3.523,3.522 5.469,3.522 7.044,1.945 7.044,0 7.044,-1.945 5.469,-3.523 3.523,-3.523 1.577,-3.523 0,-1.945 0,0 z"
                   style="fill:none;stroke:#f54a42;stroke-width:3.75;stroke-linecap:round;stroke-linejoin:miter;stroke-miterlimit:10;stroke-opacity:1;stroke-dasharray:none"
                   id="path3124" /></g></g></g><g
             id="g3126"
             transform="translate(40.5142,89.7778)"><path
               inkscape:connector-curvature="0"
               d="m 0,0 -27.644,-16.507 -0.002,-22.978"
               style="fill:none;stroke:#f54a42;stroke-width:3.75;stroke-linecap:round;stroke-linejoin:miter;stroke-miterlimit:10;stroke-opacity:1;stroke-dasharray:none"
               id="path3128" /></g><g
             id="g3130"
             transform="translate(91.1314,36.5996)"><path
               inkscape:connector-curvature="0"
               d="m 0,0 0.002,36.671 -23.701,14.15"
               style="fill:none;stroke:#f54a42;stroke-width:3.75;stroke-linecap:round;stroke-linejoin:miter;stroke-miterlimit:10;stroke-opacity:1;stroke-dasharray:none"
               id="path3132" /></g><g
             id="g3134"><g
               id="g3136"
               clip-path="url(#clipPath44)"><g
                 id="g3138"
                 transform="translate(22.8013,22.3506)"><path
                   inkscape:connector-curvature="0"
                   d="M 0,0 29.198,-16.858 50.713,-4.437"
                   style="fill:none;stroke:#f54a42;stroke-width:3.75;stroke-linecap:round;stroke-linejoin:miter;stroke-miterlimit:10;stroke-opacity:1;stroke-dasharray:none"
                   id="path3140" /></g></g></g><g
             id="g3142"
             transform="translate(91.1314,36.5996)"><path
               inkscape:connector-curvature="0"
               d="M 0,0 0.002,-2.643"
               style="fill:none;stroke:#f54a42;stroke-width:3.75;stroke-linecap:round;stroke-linejoin:miter;stroke-miterlimit:10;stroke-opacity:1;stroke-dasharray:none"
               id="path3144" /></g><g
             id="g3146"
             transform="translate(22.8013,22.3506)"><path
               inkscape:connector-curvature="0"
               d="M 0,0 -4.839,2.867"
               style="fill:none;stroke:#f54a42;stroke-width:3.75;stroke-linecap:round;stroke-linejoin:miter;stroke-miterlimit:10;stroke-opacity:1;stroke-dasharray:none"
               id="path3148" /></g><g
             id="g3150"
             transform="translate(40.5142,89.7778)"><path
               inkscape:connector-curvature="0"
               d="M 0,0 6.458,3.856"
               style="fill:none;stroke:#f54a42;stroke-width:3.75;stroke-linecap:round;stroke-linejoin:miter;stroke-miterlimit:10;stroke-opacity:1;stroke-dasharray:none"
               id="path3152" /></g><g
             id="g3154"
             transform="translate(32,65.5)"><path
               inkscape:connector-curvature="0"
               d="m 0,0 0,-9.129 12.935,0 0,-25.871 6.14,0 0,35 L 0,0 z"
               style="fill:#f54a42;fill-opacity:1;fill-rule:nonzero;stroke:none"
               id="path3156" /></g><g
             id="g3158"
             transform="translate(72,65.5)"><path
               inkscape:connector-curvature="0"
               d="m 0,0 -19.292,0 0,-34.998 6.144,0 0,25.869 L 0,-9.129 0,0 z"
               style="fill:#f54a42;fill-opacity:1;fill-rule:nonzero;stroke:none"
               id="path3160" /></g></g></g></g></g></svg>