<?xml version="1.0" encoding="utf-8"?>
<!-- Generator: Adobe Illustrator 17.0.0, SVG Export Plug-In . SVG Version: 6.00 Build 0)  -->
<!DOCTYPE svg PUBLIC "-//W3C//DTD SVG 1.0//EN" "http://www.w3.org/TR/2001/REC-SVG-20010904/DTD/svg10.dtd">
<svg version="1.0" id="Layer_1" xmlns="http://www.w3.org/2000/svg" xmlns:xlink="http://www.w3.org/1999/xlink" x="0px" y="0px"
	 width="3600px" height="1200px" viewBox="0 0 3600 1200" enable-background="new 0 0 3600 1200" xml:space="preserve">
<circle cx="560.508" cy="602.09" r="121.814"/>
<path fill="none" stroke="#000000" stroke-width="48" stroke-miterlimit="10" d="M841.035,367.773L719.421,487.728
	c0,0-59.591-82.89-157.074-83.073c-88.535-0.166-203.382,70.576-203.382,197.435s105.932,195.543,203.382,195.543
	c100.228,0,170.627-91.247,170.627-91.247l107.062,109.082"/>
<g>
	<path d="M911.662,529.51v-30.983h87.088v30.983h-28.471v174.177h-30.146V529.51H911.662z"/>
	<path d="M1038.666,703.687h-28.192v-205.16h28.192v65.316c0.558-0.279,1.675-1.396,3.35-3.07c3.07-3.07,7.257-7.257,12.281-10.049
		c2.513-1.396,4.745-1.954,7.258-1.954c7.536,0,12.84,4.466,16.189,10.048c3.35,5.862,5.024,13.398,5.024,19.818v125.05h-28.192
		V582.824c0-5.862-3.35-6.699-6.699-6.699c-3.07,0-4.745,1.675-6.699,3.629c-0.837,1.116-1.675,2.233-2.512,3.628V703.687z"/>
	<path d="M1175.159,648.978v17.585c-0.838,14.794-5.304,25.122-15.353,33.217c-5.024,4.187-12.003,6.141-21.214,6.141
		c-18.144,0-27.354-10.049-31.82-20.098c-2.513-5.861-4.188-12.561-4.466-20.097v-76.761c0.837-14.793,5.582-25.68,15.631-34.054
		c4.745-4.187,11.724-6.141,20.935-6.141c18.144,0,27.354,10.048,31.82,19.818c2.513,5.862,4.188,12.282,4.467,19.539v44.382
		h-46.615v33.217c0.279,5.861,1.954,10.048,4.467,13.119c1.396,1.396,3.35,2.232,5.861,2.232c5.304,0,7.815-3.35,8.932-7.536
		c0.838-2.233,1.117-4.745,1.117-7.815v-16.748H1175.159z M1128.544,610.458h20.377v-21.494c0-5.862-1.117-10.048-3.908-13.398
		c-1.396-1.396-3.629-2.233-6.141-2.233c-5.304,0-7.536,3.628-8.933,7.815c-0.837,2.233-1.116,4.745-1.396,7.815V610.458z"/>
	<path d="M1315.838,661.538c-0.279,8.374-1.954,15.91-5.024,22.33c-2.513,5.583-6.42,10.887-12.003,15.073
		c-5.582,4.466-13.119,6.979-23.167,6.979c-10.049,0-17.864-2.513-23.447-6.979c-5.583-4.187-9.211-9.49-11.724-15.073
		c-3.07-6.42-4.745-13.956-5.024-22.33V540.675c0.279-8.095,1.954-15.631,5.024-22.051c2.513-5.583,6.141-11.165,11.724-15.352
		s13.398-6.979,23.447-6.979c10.048,0,17.585,2.792,23.167,6.979c5.583,4.187,9.49,9.77,12.003,15.352
		c3.07,6.42,4.745,13.957,5.024,22.051V661.538z M1285.691,540.675c0-5.583-1.116-9.491-3.907-12.84
		c-1.396-1.396-3.629-2.233-6.141-2.233c-5.304,0-7.816,3.908-8.933,7.537c-0.837,2.233-1.116,4.745-1.116,7.537v120.863
		c0,5.862,1.396,9.77,4.187,12.84c1.396,1.396,3.35,2.233,5.862,2.233c5.303,0,7.815-3.35,8.932-7.536
		c0.838-1.954,1.116-4.467,1.116-7.537V540.675z"/>
	<path d="M1336.213,551.003h28.192v10.049c4.745-4.466,8.932-7.816,14.515-10.328c2.512-1.396,5.304-1.954,7.815-1.954
		c7.815,0,13.119,4.466,16.748,10.048c3.35,5.862,5.024,13.398,5.024,19.818v97.416c0,6.42-1.675,13.957-5.024,19.539
		c-3.629,5.862-8.933,10.328-16.748,10.328c-5.304,0-10.886-3.07-15.073-6.141c-2.512-1.954-4.745-3.908-7.257-6.142v62.525h-28.192
		V551.003z M1364.405,670.191c0,4.466,4.187,9.211,8.374,9.211c4.187,0,7.536-3.907,7.536-9.211v-85.693
		c0-5.304-3.35-9.211-7.536-9.211c-4.188,0-8.374,3.908-8.374,9.211V670.191z"/>
	<path d="M1500.341,648.978v17.585c-0.838,14.794-5.304,25.122-15.353,33.217c-5.024,4.187-12.003,6.141-21.214,6.141
		c-18.144,0-27.354-10.049-31.82-20.098c-2.513-5.861-4.188-12.561-4.466-20.097v-76.761c0.837-14.793,5.582-25.68,15.631-34.054
		c4.745-4.187,11.724-6.141,20.935-6.141c18.144,0,27.354,10.048,31.82,19.818c2.513,5.862,4.188,12.282,4.467,19.539v44.382
		h-46.615v33.217c0.279,5.861,1.954,10.048,4.467,13.119c1.396,1.396,3.35,2.232,5.861,2.232c5.304,0,7.815-3.35,8.932-7.536
		c0.838-2.233,1.117-4.745,1.117-7.815v-16.748H1500.341z M1453.726,610.458h20.377v-21.494c0-5.862-1.117-10.048-3.908-13.398
		c-1.396-1.396-3.629-2.233-6.141-2.233c-5.304,0-7.536,3.628-8.933,7.815c-0.837,2.233-1.116,4.745-1.396,7.815V610.458z"/>
	<path d="M1547.234,703.687h-28.192V551.003h28.192v12.84c0.558-0.279,1.675-1.396,3.35-3.07c3.07-3.07,7.257-7.257,12.281-10.049
		c2.513-1.396,4.745-1.954,7.258-1.954c7.536,0,12.84,4.466,16.189,10.048c3.35,5.862,5.024,13.398,5.024,19.818v125.05h-28.192
		V582.824c0-5.862-3.35-6.699-6.699-6.699c-3.07,0-4.745,1.675-6.699,3.629c-0.837,1.116-1.675,2.233-2.512,3.628V703.687z"/>
	<path d="M1734.527,633.347v28.191c-0.279,8.374-1.954,15.91-5.024,22.33c-2.513,5.583-6.42,10.887-12.003,15.073
		c-5.582,4.466-13.119,6.979-23.167,6.979c-10.049,0-17.864-2.513-23.447-6.979c-5.583-4.187-9.211-9.49-11.724-15.073
		c-3.07-6.42-4.745-13.956-5.024-22.33V540.675c0.279-8.095,1.954-15.631,5.024-22.051c2.513-5.583,6.141-11.165,11.724-15.352
		s13.398-6.979,23.447-6.979c10.048,0,17.585,2.792,23.167,6.979c5.583,4.187,9.49,9.77,12.003,15.352
		c3.07,6.42,4.745,13.957,5.024,22.051v28.192h-28.192v-28.192c0-5.583-1.396-9.491-4.466-12.84
		c-1.396-1.396-3.908-2.233-6.979-2.233c-5.303,0-7.815,3.908-9.211,7.537c-0.838,2.233-1.116,4.745-1.396,7.537v120.863
		c0.279,5.862,1.954,9.77,4.745,12.84c1.396,1.396,3.35,2.233,5.861,2.233c6.42,0,8.933-3.35,10.328-7.536
		c0.837-1.954,1.116-4.467,1.116-7.537v-28.191H1734.527z"/>
	<path d="M1822.453,666.562c-0.837,14.794-5.304,25.122-15.073,33.217c-5.023,4.187-12.002,6.141-21.214,6.141
		c-18.143,0-27.075-10.049-31.541-20.098c-2.513-5.861-4.188-12.561-4.466-20.097v-76.761c0.837-14.793,5.303-25.68,15.072-34.054
		c4.745-4.187,11.724-6.141,20.935-6.141c18.144,0,27.355,10.048,31.821,19.818c2.512,5.862,4.187,12.282,4.466,19.539V666.562z
		 M1795.936,588.964c0.279-5.862-0.837-10.048-3.628-13.398c-1.396-1.396-3.629-2.233-6.142-2.233c-5.303,0-7.536,3.628-8.652,7.815
		c-0.838,2.233-1.116,4.745-0.838,7.815v76.761c-0.278,5.861,1.117,10.048,3.629,13.119c1.396,1.396,3.35,2.232,5.861,2.232
		c5.304,0,7.816-3.35,8.933-7.536c0.837-2.233,1.116-4.745,0.837-7.815V588.964z"/>
	<path d="M1914.567,703.687h-26.517V582.824c0-5.862-4.467-6.699-7.537-6.699s-5.582,1.675-7.536,3.629
		c-1.116,1.116-2.233,2.233-3.07,3.628v120.305h-28.192V551.003h28.192v12.84c0.558-0.279,1.675-1.396,3.35-3.07
		c3.07-3.07,7.815-7.257,12.84-10.049c2.512-1.396,4.745-1.954,7.257-1.954c10.049,0,15.911,8.095,18.981,17.027
		c1.116-0.837,2.512-2.233,4.466-4.187c3.629-3.908,8.374-7.537,13.677-10.607c2.513-1.396,5.024-2.233,7.537-2.233
		c7.536,0,12.84,4.466,16.189,10.048c3.35,5.862,5.024,13.398,5.024,19.818v125.05h-26.518V582.824c0-5.862-4.466-6.699-7.536-6.699
		s-5.583,1.675-7.537,3.629c-1.116,1.116-2.232,2.233-3.07,3.628V703.687z"/>
	<path d="M1981.001,551.003h28.192v10.049c4.745-4.466,8.932-7.816,14.515-10.328c2.512-1.396,5.304-1.954,7.815-1.954
		c7.815,0,13.119,4.466,16.748,10.048c3.35,5.862,5.024,13.398,5.024,19.818v97.416c0,6.42-1.675,13.957-5.024,19.539
		c-3.629,5.862-8.933,10.328-16.748,10.328c-5.304,0-10.886-3.07-15.073-6.141c-2.512-1.954-4.745-3.908-7.257-6.142v62.525h-28.192
		V551.003z M2009.193,670.191c0,4.466,4.187,9.211,8.374,9.211c4.187,0,7.536-3.907,7.536-9.211v-85.693
		c0-5.304-3.35-9.211-7.536-9.211c-4.188,0-8.374,3.908-8.374,9.211V670.191z"/>
	<path d="M2115.542,587.29c0-2.512,0-6.42-0.838-9.211c-1.116-2.792-3.35-4.745-6.978-4.745c-4.745,0-6.699,3.628-7.537,8.095
		c-0.279,2.233-0.558,4.745-0.558,7.257s0,5.024,0,7.257h-28.192v-6.42c0-11.166,4.187-21.214,10.886-28.75
		s16.189-12.002,27.076-12.002c9.211,0,17.585,3.628,24.005,9.77c6.42,6.141,10.327,14.794,10.327,24.842v93.788
		c0,13.677,0.838,19.817,1.954,26.517h-27.634c-2.512-3.07-2.512-10.327-2.512-12.281h-1.954c-1.396,2.512-3.908,6.141-7.815,9.211
		c-3.908,3.07-9.211,5.304-14.794,5.304c-3.629,0-9.49-1.396-13.956-6.979c-4.746-5.304-8.653-14.794-8.653-30.704
		c0-17.026,5.024-29.309,11.724-37.683s15.072-13.677,22.051-17.306s12.282-6.141,13.398-9.211V587.29z M2115.542,629.997
		c-13.678,5.861-19.539,19.539-19.539,34.054c0,1.953,0.279,5.303,1.396,8.373c1.116,3.35,3.07,5.862,6.42,5.862
		c6.42,0,11.724-3.908,11.724-9.211V629.997z"/>
	<path d="M2190.353,703.687h-28.192V551.003h28.192v12.84c0.558-0.279,1.675-1.396,3.35-3.07c3.07-3.07,7.257-7.257,12.281-10.049
		c2.513-1.396,4.745-1.954,7.258-1.954c7.536,0,12.84,4.466,16.189,10.048c3.35,5.862,5.024,13.398,5.024,19.818v125.05h-28.192
		V582.824c0-5.862-3.35-6.699-6.699-6.699c-3.07,0-4.745,1.675-6.699,3.629c-0.837,1.116-1.675,2.233-2.512,3.628V703.687z"/>
	<path d="M2249.527,732.716c0.279,0.279,0.838,0.279,1.675,0.279c1.396,0.279,8.374,0.838,12.84-2.512
		c4.467-3.35,7.537-8.095,9.212-13.957c0.837-2.791,1.116-5.582,1.116-8.374l-25.959-157.149h27.634l11.165,93.788l0.559,7.815
		h1.116l0.559-7.815l11.165-93.788h27.634l-27.076,164.128c-1.396,10.886-5.582,21.493-12.281,29.588s-15.631,13.677-26.796,13.677
		c-0.838,0-1.954,0-3.35,0c-2.513,0-5.862-0.279-9.212-0.558V732.716z"/>
	<path d="M2385.742,498.527h30.146v205.16h-30.146V498.527z"/>
	<path d="M2466.408,703.687h-28.192V551.003h28.192v12.84c0.558-0.279,1.675-1.396,3.35-3.07c3.07-3.07,7.257-7.257,12.281-10.049
		c2.513-1.396,4.745-1.954,7.258-1.954c7.536,0,12.84,4.466,16.189,10.048c3.35,5.862,5.024,13.398,5.024,19.818v125.05h-28.192
		V582.824c0-5.862-3.35-6.699-6.699-6.699c-3.07,0-4.745,1.675-6.699,3.629c-0.837,1.116-1.675,2.233-2.512,3.628V703.687z"/>
	<path d="M2573.596,590.081c0-3.629,0-8.095-1.116-11.724c-1.396-3.35-3.629-6.141-8.095-6.141c-3.629,0-5.862,2.791-6.979,6.141
		c-1.396,3.35-1.675,8.095-1.675,11.724c0,4.745,2.512,9.77,6.141,14.235c3.35,4.467,7.815,8.933,12.281,13.119
		c5.862,5.862,12.841,12.562,17.586,20.098c4.745,7.815,8.374,16.469,8.374,26.518c0,9.77-2.233,20.097-7.816,27.912
		c-5.861,8.095-14.794,13.957-28.191,13.957c-17.027,0-27.076-7.815-32.658-17.306c-5.583-9.491-6.699-21.214-6.699-29.309h26.238
		c0,4.187,0.279,10.048,2.232,14.515c1.954,4.745,5.024,8.652,10.887,8.652c8.095,0,9.77-9.49,9.77-18.422
		c0-9.212-8.933-18.423-17.586-27.076c-6.698-6.42-13.118-12.281-18.143-19.817c-5.024-7.537-8.653-15.911-8.653-27.076
		c0-8.932,1.675-19.26,6.979-27.354c5.303-7.816,13.956-13.678,27.354-13.957c16.469-0.279,25.68,5.862,30.425,13.957
		s5.583,18.702,5.583,27.354H2573.596z"/>
	<path d="M2648.407,513.32v37.683h19.26v25.401h-19.26v75.923c0,4.745,0,10.886,1.116,15.91c1.117,5.024,3.35,9.211,7.816,9.211
		c2.232,0,5.024-0.278,6.978-0.558c1.117-0.279,2.233-0.279,3.35-0.559v27.634c-1.396,0.279-2.791,0.838-4.187,1.116
		c-2.791,0.559-6.42,0.838-10.886,0.838c-16.469,0-24.284-8.374-28.192-18.98c-3.908-10.607-4.187-23.447-4.187-32.38v-78.156
		h-14.236v-25.401h14.236V513.32H2648.407z"/>
	<path d="M2682.74,498.527h28.192v28.192h-28.192V498.527z M2682.74,703.687V551.003h28.192v152.684H2682.74z"/>
	<path d="M2766.201,513.32v37.683h19.26v25.401h-19.26v75.923c0,4.745,0,10.886,1.116,15.91c1.117,5.024,3.35,9.211,7.816,9.211
		c2.232,0,5.024-0.278,6.978-0.558c1.117-0.279,2.233-0.279,3.35-0.559v27.634c-1.396,0.279-2.791,0.838-4.187,1.116
		c-2.791,0.559-6.42,0.838-10.886,0.838c-16.469,0-24.284-8.374-28.192-18.98c-3.908-10.607-4.187-23.447-4.187-32.38v-78.156
		h-14.236v-25.401h14.236V513.32H2766.201z"/>
	<path d="M2844.078,551.003h28.192v152.684h-28.192v-12.84c-0.558,0.279-1.675,1.396-3.07,2.791
		c-3.35,3.35-7.257,7.258-12.281,10.049c-2.513,1.396-5.024,2.233-7.537,2.233c-7.536,0-12.84-4.466-16.189-10.328
		c-3.35-5.582-5.024-13.119-5.024-19.539v-125.05h28.192v120.863c0,5.861,3.35,6.699,6.699,6.699c3.07,0,4.745-1.675,6.699-3.629
		c0.837-0.838,1.675-2.233,2.512-3.629V551.003z"/>
	<path d="M2927.261,513.32v37.683h19.26v25.401h-19.26v75.923c0,4.745,0,10.886,1.116,15.91c1.117,5.024,3.35,9.211,7.816,9.211
		c2.232,0,5.024-0.278,6.978-0.558c1.117-0.279,2.233-0.279,3.35-0.559v27.634c-1.396,0.279-2.791,0.838-4.187,1.116
		c-2.791,0.559-6.42,0.838-10.886,0.838c-16.469,0-24.284-8.374-28.192-18.98c-3.908-10.607-4.187-23.447-4.187-32.38v-78.156
		h-14.236v-25.401h14.236V513.32H2927.261z"/>
	<path d="M3032.214,648.978v17.585c-0.838,14.794-5.304,25.122-15.353,33.217c-5.024,4.187-12.003,6.141-21.214,6.141
		c-18.144,0-27.354-10.049-31.82-20.098c-2.513-5.861-4.188-12.561-4.466-20.097v-76.761c0.837-14.793,5.582-25.68,15.631-34.054
		c4.745-4.187,11.724-6.141,20.935-6.141c18.144,0,27.354,10.048,31.82,19.818c2.513,5.862,4.188,12.282,4.467,19.539v44.382
		h-46.615v33.217c0.279,5.861,1.954,10.048,4.467,13.119c1.396,1.396,3.35,2.232,5.861,2.232c5.304,0,7.815-3.35,8.932-7.536
		c0.838-2.233,1.117-4.745,1.117-7.815v-16.748H3032.214z M2985.599,610.458h20.377v-21.494c0-5.862-1.117-10.048-3.908-13.398
		c-1.396-1.396-3.629-2.233-6.141-2.233c-5.304,0-7.536,3.628-8.933,7.815c-0.837,2.233-1.116,4.745-1.396,7.815V610.458z"/>
</g>
<g>
</g>
<g>
</g>
<g>
</g>
<g>
</g>
<g>
</g>
<g>
</g>
</svg>
