<?xml version="1.0" encoding="utf-8"?>
<!-- Generator: Adobe Illustrator 17.0.0, SVG Export Plug-In . SVG Version: 6.00 Build 0)  -->
<!DOCTYPE svg PUBLIC "-//W3C//DTD SVG 1.0//EN" "http://www.w3.org/TR/2001/REC-SVG-20010904/DTD/svg10.dtd">
<svg version="1.0" id="Layer_1" xmlns="http://www.w3.org/2000/svg" xmlns:xlink="http://www.w3.org/1999/xlink" x="0px" y="0px"
	 width="3637px" height="540px" viewBox="0 0 3637 540" enable-background="new 0 0 3637 540" xml:space="preserve">
<circle cx="251.516" cy="277.507" r="132.094"/>
<path fill="none" stroke="#000000" stroke-width="64" stroke-miterlimit="10" d="M555.717,23.416L423.84,153.494
	c0,0-64.62-89.885-170.33-90.083c-96.007-0.18-220.546,76.532-220.546,214.096S147.836,489.552,253.51,489.552
	c108.687,0,185.026-98.947,185.026-98.947l116.097,118.287"/>
<g>
	<path d="M632.479,168.08v-43.333h121.799v43.333h-39.818v243.598h-42.161V168.08H632.479z"/>
	<path d="M810.101,411.677h-39.429v-286.93h39.429v91.35c0.78-0.391,2.342-1.952,4.685-4.294
		c4.294-4.294,10.149-10.15,17.177-14.054c3.513-1.952,6.636-2.733,10.149-2.733c10.541,0,17.958,6.246,22.643,14.054
		c4.685,8.198,7.026,18.738,7.026,27.717v174.891h-39.429V242.643c0-8.198-4.684-9.369-9.369-9.369
		c-4.294,0-6.636,2.342-9.369,5.075c-1.171,1.562-2.342,3.123-3.513,5.075V411.677z"/>
	<path d="M1000.992,335.163v24.594c-1.172,20.69-7.418,35.134-21.471,46.455c-7.027,5.855-16.787,8.588-29.67,8.588
		c-25.374,0-38.257-14.054-44.503-28.107c-3.514-8.198-5.855-17.567-6.246-28.107V251.23c1.171-20.69,7.808-35.915,21.861-47.626
		c6.637-5.856,16.396-8.589,29.278-8.589c25.375,0,38.258,14.054,44.504,27.717c3.514,8.198,5.855,17.177,6.246,27.327v62.07
		h-65.193v46.456c0.39,8.198,2.732,14.054,6.246,18.348c1.951,1.952,4.684,3.123,8.197,3.123c7.418,0,10.931-4.685,12.492-10.541
		c1.172-3.123,1.562-6.636,1.562-10.931v-23.423H1000.992z M935.799,281.29h28.497v-30.06c0-8.198-1.562-14.054-5.465-18.738
		c-1.952-1.952-5.075-3.123-8.589-3.123c-7.417,0-10.54,5.075-12.492,10.931c-1.171,3.123-1.562,6.637-1.951,10.931V281.29z"/>
	<path d="M1197.737,352.729c-0.391,11.712-2.733,22.252-7.027,31.23c-3.513,7.808-8.979,15.225-16.786,21.081
		c-7.808,6.246-18.348,9.759-32.401,9.759s-24.984-3.513-32.792-9.759c-7.808-5.856-12.883-13.273-16.396-21.081
		c-4.294-8.979-6.637-19.519-7.026-31.23V183.695c0.39-11.321,2.732-21.861,7.026-30.84c3.514-7.808,8.589-15.615,16.396-21.471
		s18.738-9.76,32.792-9.76s24.594,3.904,32.401,9.76s13.273,13.663,16.786,21.471c4.294,8.979,6.637,19.52,7.027,30.84V352.729z
		 M1155.576,183.695c0-7.808-1.562-13.273-5.466-17.958c-1.952-1.952-5.075-3.123-8.588-3.123c-7.417,0-10.931,5.465-12.492,10.54
		c-1.171,3.123-1.562,6.637-1.562,10.541v169.035c0,8.198,1.951,13.664,5.855,17.958c1.952,1.952,4.685,3.123,8.198,3.123
		c7.417,0,10.931-4.685,12.492-10.541c1.171-2.733,1.562-6.246,1.562-10.541V183.695z"/>
	<path d="M1226.23,198.139h39.429v14.054c6.636-6.246,12.492-10.931,20.3-14.444c3.514-1.952,7.417-2.733,10.931-2.733
		c10.931,0,18.348,6.246,23.423,14.054c4.685,8.198,7.026,18.738,7.026,27.717v136.243c0,8.979-2.342,19.52-7.026,27.327
		c-5.075,8.198-12.492,14.444-23.423,14.444c-7.417,0-15.226-4.294-21.081-8.588c-3.514-2.732-6.637-5.465-10.149-8.588v87.445
		h-39.429V198.139z M1265.659,364.832c0,6.246,5.855,12.882,11.711,12.882c5.856,0,10.54-5.465,10.54-12.882V244.984
		c0-7.417-4.684-12.882-10.54-12.882c-5.855,0-11.711,5.465-11.711,12.882V364.832z"/>
	<path d="M1455.771,335.163v24.594c-1.172,20.69-7.418,35.134-21.471,46.455c-7.027,5.855-16.787,8.588-29.67,8.588
		c-25.374,0-38.257-14.054-44.503-28.107c-3.514-8.198-5.855-17.567-6.246-28.107V251.23c1.171-20.69,7.808-35.915,21.861-47.626
		c6.637-5.856,16.396-8.589,29.278-8.589c25.375,0,38.258,14.054,44.504,27.717c3.514,8.198,5.855,17.177,6.246,27.327v62.07
		h-65.193v46.456c0.39,8.198,2.732,14.054,6.246,18.348c1.951,1.952,4.684,3.123,8.197,3.123c7.418,0,10.931-4.685,12.492-10.541
		c1.172-3.123,1.562-6.636,1.562-10.931v-23.423H1455.771z M1390.578,281.29h28.497v-30.06c0-8.198-1.562-14.054-5.465-18.738
		c-1.952-1.952-5.075-3.123-8.589-3.123c-7.417,0-10.54,5.075-12.492,10.931c-1.171,3.123-1.562,6.637-1.951,10.931V281.29z"/>
	<path d="M1521.352,411.677h-39.429V198.139h39.429v17.958c0.78-0.391,2.342-1.952,4.685-4.294
		c4.294-4.294,10.149-10.15,17.177-14.054c3.514-1.952,6.637-2.733,10.149-2.733c10.54,0,17.958,6.246,22.643,14.054
		c4.685,8.198,7.026,18.738,7.026,27.717v174.891h-39.428V242.643c0-8.198-4.686-9.369-9.369-9.369
		c-4.295,0-6.637,2.342-9.369,5.075c-1.172,1.562-2.343,3.123-3.514,5.075V411.677z"/>
	<path d="M1783.29,313.301v39.428c-0.391,11.712-2.733,22.252-7.027,31.23c-3.513,7.808-8.979,15.225-16.786,21.081
		c-7.808,6.246-18.348,9.759-32.401,9.759s-24.984-3.513-32.792-9.759c-7.808-5.856-12.883-13.273-16.396-21.081
		c-4.294-8.979-6.637-19.519-7.026-31.23V183.695c0.39-11.321,2.732-21.861,7.026-30.84c3.514-7.808,8.589-15.615,16.396-21.471
		s18.738-9.76,32.792-9.76s24.594,3.904,32.401,9.76s13.273,13.663,16.786,21.471c4.294,8.979,6.637,19.52,7.027,30.84v39.428
		h-39.429v-39.428c0-7.808-1.952-13.273-6.246-17.958c-1.952-1.952-5.465-3.123-9.76-3.123c-7.417,0-10.931,5.465-12.883,10.54
		c-1.171,3.123-1.561,6.637-1.951,10.541v169.035c0.391,8.198,2.732,13.664,6.637,17.958c1.951,1.952,4.684,3.123,8.197,3.123
		c8.979,0,12.492-4.685,14.444-10.541c1.171-2.733,1.562-6.246,1.562-10.541v-39.428H1783.29z"/>
	<path d="M1906.258,359.757c-1.172,20.69-7.418,35.134-21.081,46.455c-7.026,5.855-16.786,8.588-29.669,8.588
		c-25.375,0-37.867-14.054-44.113-28.107c-3.514-8.198-5.855-17.567-6.246-28.107V251.23c1.172-20.69,7.418-35.915,21.081-47.626
		c6.636-5.856,16.396-8.589,29.278-8.589c25.375,0,38.258,14.054,44.504,27.717c3.513,8.198,5.855,17.177,6.246,27.327V359.757z
		 M1869.171,251.23c0.391-8.198-1.171-14.054-5.075-18.738c-1.951-1.952-5.074-3.123-8.588-3.123
		c-7.417,0-10.54,5.075-12.102,10.931c-1.172,3.123-1.562,6.637-1.172,10.931v107.355c-0.39,8.198,1.562,14.054,5.075,18.348
		c1.952,1.952,4.685,3.123,8.198,3.123c7.417,0,10.931-4.685,12.492-10.541c1.171-3.123,1.562-6.636,1.171-10.931V251.23z"/>
	<path d="M2035.083,411.677h-37.087V242.643c0-8.198-6.246-9.369-10.54-9.369s-7.808,2.342-10.54,5.075
		c-1.562,1.562-3.123,3.123-4.294,5.075v168.254h-39.429V198.139h39.429v17.958c0.78-0.391,2.342-1.952,4.685-4.294
		c4.294-4.294,10.931-10.15,17.957-14.054c3.514-1.952,6.637-2.733,10.15-2.733c14.054,0,22.252,11.321,26.546,23.813
		c1.562-1.171,3.513-3.123,6.246-5.855c5.075-5.466,11.711-10.541,19.128-14.835c3.514-1.952,7.027-3.123,10.541-3.123
		c10.54,0,17.957,6.246,22.642,14.054c4.685,8.198,7.027,18.738,7.027,27.717v174.891h-37.087V242.643
		c0-8.198-6.246-9.369-10.54-9.369s-7.808,2.342-10.54,5.075c-1.562,1.562-3.123,3.123-4.294,5.075V411.677z"/>
	<path d="M2127.99,198.139h39.429v14.054c6.636-6.246,12.492-10.931,20.3-14.444c3.514-1.952,7.417-2.733,10.931-2.733
		c10.931,0,18.348,6.246,23.423,14.054c4.685,8.198,7.026,18.738,7.026,27.717v136.243c0,8.979-2.342,19.52-7.026,27.327
		c-5.075,8.198-12.492,14.444-23.423,14.444c-7.417,0-15.226-4.294-21.081-8.588c-3.514-2.732-6.637-5.465-10.149-8.588v87.445
		h-39.429V198.139z M2167.419,364.832c0,6.246,5.855,12.882,11.711,12.882c5.856,0,10.54-5.465,10.54-12.882V244.984
		c0-7.417-4.684-12.882-10.54-12.882c-5.855,0-11.711,5.465-11.711,12.882V364.832z"/>
	<path d="M2316.152,248.889c0-3.514,0-8.979-1.172-12.883c-1.561-3.904-4.684-6.637-9.759-6.637c-6.637,0-9.369,5.075-10.54,11.321
		c-0.391,3.123-0.781,6.637-0.781,10.15s0,7.027,0,10.15h-39.429v-8.979c0-15.615,5.856-29.669,15.226-40.209
		s22.642-16.787,37.866-16.787c12.883,0,24.595,5.075,33.573,13.664s14.443,20.69,14.443,34.744v131.168
		c0,19.129,1.172,27.717,2.733,37.086h-38.647c-3.514-4.294-3.514-14.444-3.514-17.177h-2.732
		c-1.952,3.513-5.466,8.588-10.932,12.882c-5.465,4.294-12.882,7.417-20.689,7.417c-5.075,0-13.273-1.952-19.52-9.759
		c-6.637-7.417-12.102-20.69-12.102-42.942c0-23.813,7.027-40.99,16.396-52.701s21.08-19.129,30.84-24.204
		s17.177-8.588,18.738-12.882V248.889z M2316.152,308.617c-19.129,8.198-27.327,27.327-27.327,47.626
		c0,2.732,0.391,7.417,1.952,11.711c1.562,4.685,4.294,8.198,8.979,8.198c8.979,0,16.396-5.465,16.396-12.882V308.617z"/>
	<path d="M2420.777,411.677h-39.429V198.139h39.429v17.958c0.78-0.391,2.342-1.952,4.685-4.294
		c4.294-4.294,10.149-10.15,17.177-14.054c3.514-1.952,6.637-2.733,10.149-2.733c10.54,0,17.958,6.246,22.643,14.054
		c4.685,8.198,7.026,18.738,7.026,27.717v174.891h-39.428V242.643c0-8.198-4.686-9.369-9.369-9.369
		c-4.295,0-6.637,2.342-9.369,5.075c-1.172,1.562-2.343,3.123-3.514,5.075V411.677z"/>
	<path d="M2503.533,452.277c0.391,0.39,1.171,0.39,2.342,0.39c1.952,0.391,11.712,1.171,17.958-3.513s10.54-11.321,12.883-19.519
		c1.171-3.904,1.562-7.808,1.562-11.711l-36.306-219.785h38.647l15.615,131.168l0.781,10.931h1.562l0.78-10.931l15.615-131.168
		h38.648l-37.867,229.544c-1.952,15.225-7.808,30.06-17.177,41.381c-9.369,11.321-21.861,19.128-37.477,19.128
		c-1.171,0-2.733,0-4.685,0c-3.514,0-8.198-0.39-12.883-0.781V452.277z"/>
	<path d="M2694.035,124.747h42.161v286.93h-42.161V124.747z"/>
	<path d="M2806.851,411.677h-39.429V198.139h39.429v17.958c0.78-0.391,2.342-1.952,4.685-4.294
		c4.294-4.294,10.149-10.15,17.177-14.054c3.513-1.952,6.636-2.733,10.149-2.733c10.541,0,17.958,6.246,22.643,14.054
		c4.685,8.198,7.026,18.738,7.026,27.717v174.891h-39.429V242.643c0-8.198-4.684-9.369-9.369-9.369
		c-4.294,0-6.636,2.342-9.369,5.075c-1.171,1.562-2.342,3.123-3.513,5.075V411.677z"/>
	<path d="M2898.977,124.747h39.429v39.429h-39.429V124.747z M2898.977,411.677V198.139h39.429v213.539H2898.977z"/>
	<path d="M3015.701,145.438v52.701h26.936v35.525h-26.936v106.184c0,6.636,0,15.225,1.561,22.251
		c1.562,7.027,4.686,12.883,10.932,12.883c3.123,0,7.026-0.391,9.759-0.781c1.562-0.39,3.123-0.39,4.685-0.781v38.647
		c-1.951,0.391-3.903,1.171-5.855,1.562c-3.904,0.781-8.979,1.171-15.225,1.171c-23.033,0-33.963-11.711-39.429-26.546
		s-5.855-32.792-5.855-45.284V233.664h-19.909v-35.525h19.909v-52.701H3015.701z"/>
	<path d="M3063.716,124.747h39.429v39.429h-39.429V124.747z M3063.716,411.677V198.139h39.429v213.539H3063.716z"/>
	<path d="M3194.103,248.889c0-3.514,0-8.979-1.171-12.883c-1.562-3.904-4.686-6.637-9.76-6.637c-6.637,0-9.369,5.075-10.541,11.321
		c-0.39,3.123-0.78,6.637-0.78,10.15s0,7.027,0,10.15h-39.429v-8.979c0-15.615,5.855-29.669,15.225-40.209
		s22.643-16.787,37.867-16.787c12.883,0,24.594,5.075,33.573,13.664c8.979,8.588,14.444,20.69,14.444,34.744v131.168
		c0,19.129,1.171,27.717,2.732,37.086h-38.648c-3.513-4.294-3.513-14.444-3.513-17.177h-2.733
		c-1.951,3.513-5.465,8.588-10.93,12.882c-5.466,4.294-12.883,7.417-20.69,7.417c-5.075,0-13.273-1.952-19.52-9.759
		c-6.636-7.417-12.102-20.69-12.102-42.942c0-23.813,7.026-40.99,16.396-52.701s21.081-19.129,30.841-24.204
		c9.759-5.075,17.177-8.588,18.738-12.882V248.889z M3194.103,308.617c-19.129,8.198-27.327,27.327-27.327,47.626
		c0,2.732,0.391,7.417,1.952,11.711c1.562,4.685,4.294,8.198,8.979,8.198c8.979,0,16.396-5.465,16.396-12.882V308.617z"/>
	<path d="M3305.365,145.438v52.701h26.936v35.525h-26.936v106.184c0,6.636,0,15.225,1.561,22.251
		c1.562,7.027,4.686,12.883,10.932,12.883c3.123,0,7.026-0.391,9.759-0.781c1.562-0.39,3.123-0.39,4.685-0.781v38.647
		c-1.951,0.391-3.903,1.171-5.855,1.562c-3.904,0.781-8.979,1.171-15.225,1.171c-23.033,0-33.963-11.711-39.429-26.546
		s-5.855-32.792-5.855-45.284V233.664h-19.909v-35.525h19.909v-52.701H3305.365z"/>
	<path d="M3353.38,124.747h39.429v39.429h-39.429V124.747z M3353.38,411.677V198.139h39.429v213.539H3353.38z"/>
	<path d="M3446.29,411.677l-34.744-213.539h38.257l12.883,123.751l1.562,13.663h3.123l1.562-13.663l12.883-123.751h38.258
		l-34.744,213.539H3446.29z"/>
	<path d="M3636.405,335.163v24.594c-1.171,20.69-7.417,35.134-21.472,46.455c-7.026,5.855-16.786,8.588-29.668,8.588
		c-25.375,0-38.258-14.054-44.504-28.107c-3.514-8.198-5.855-17.567-6.246-28.107V251.23c1.171-20.69,7.808-35.915,21.861-47.626
		c6.637-5.856,16.396-8.589,29.278-8.589c25.375,0,38.258,14.054,44.504,27.717c3.513,8.198,5.855,17.177,6.246,27.327v62.07
		h-65.194v46.456c0.391,8.198,2.733,14.054,6.246,18.348c1.952,1.952,4.686,3.123,8.198,3.123c7.417,0,10.931-4.685,12.492-10.541
		c1.171-3.123,1.562-6.636,1.562-10.931v-23.423H3636.405z M3571.211,281.29h28.498v-30.06c0-8.198-1.562-14.054-5.465-18.738
		c-1.952-1.952-5.075-3.123-8.589-3.123c-7.417,0-10.54,5.075-12.492,10.931c-1.171,3.123-1.562,6.637-1.952,10.931V281.29z"/>
</g>
<g>
</g>
<g>
</g>
<g>
</g>
<g>
</g>
<g>
</g>
<g>
</g>
</svg>
